<?xml version="1.0" encoding="UTF-8"?>
<svg width="667px" height="348px" viewBox="0 0 667 348" version="1.1" xmlns="http://www.w3.org/2000/svg" xmlns:xlink="http://www.w3.org/1999/xlink">
    <!-- Generator: Sketch 55.2 (78181) - https://sketchapp.com -->
    <title>corner-identity</title>
    <desc>Created with Sketch.</desc>
    <g id="corner-identity" stroke="none" stroke-width="1" fill="none" fill-rule="evenodd">
        <g id="Group-2" transform="translate(-86.000000, 0.000000)">
            <g id="Group-75">
                <path d="M541.438551,279.612557 C537.707366,271.025136 541.482259,261.129256 549.895331,257.445447 C557.900745,253.94313 568.263774,256.750315 572.457524,266.468882 C576.989819,276.980429 570.734294,285.649738 564.045287,288.621118 C556.111327,292.145411 545.609235,288.832858 541.438551,279.612557" id="Fill-1" fill="#46D8F9"></path>
                <path d="M617.164046,265.816624 C614.041634,258.471691 617.420676,250.026 624.671245,247.051931 C631.950146,244.06563 640.679797,247.667102 643.822814,254.951819 C646.958105,262.21002 643.607481,270.755273 636.420191,273.831643 C628.966739,277.021091 620.413614,273.461873 617.164046,265.816624" id="Fill-4" fill="#FF703E"></path>
                <path d="M664.976266,349.880292 C667.671475,356.209122 664.866339,363.378515 658.658006,366.023005 C652.301876,368.73298 644.721976,365.602016 641.997776,359.144048 C639.337756,352.837295 642.174061,345.693481 648.392783,343.024579 C654.850712,340.25695 662.165264,343.279939 664.976266,349.880292" id="Fill-6" fill="#FDC505"></path>
                <path d="M132.479504,354.775083 C130.64818,355.183274 128.818759,355.591551 126.986608,356 C123.893518,355.361369 121.144297,354.152782 119.157218,351.41277 C116.591147,347.873996 116.262588,343.078845 118.450361,339.176489 C120.616368,335.314875 124.661452,333.418406 129.160395,334.157259 C133.286336,334.834655 136.862416,338.361568 137.698462,342.574902 C138.727175,347.767586 137.156712,351.439587 132.479504,354.775083" id="Fill-9" fill="#47D8F9"></path>
                <path d="M465.446002,239.884725 C464.67269,240.203485 463.897801,240.522938 463.125319,240.839447 C460.798575,241.161584 458.54066,241.053253 456.341612,240.011242 C451.792489,237.853874 449.359969,233.173876 450.146067,227.905024 C450.850383,223.185798 454.6472,219.546078 459.390274,219.045293 C463.746027,218.585728 468.600523,221.675389 470.235737,225.948646 C472.060749,230.719483 470.536045,236.127148 466.528755,239.102243 C466.170245,239.367314 465.808082,239.623725 465.446002,239.884725" id="Fill-10" fill="#46D8F9"></path>
                <path d="M78.246137,337.870096 C83.5777388,335.57111 89.7010578,337.979866 92.0665625,343.305342 C94.4526526,348.67617 92.1022208,354.949121 86.8614873,357.193737 C81.685869,359.413101 75.3373172,356.883667 72.9600125,351.654132 C70.5274977,346.299624 72.872331,340.186432 78.246137,337.870096" id="Fill-11" fill="#FDC505"></path>
                <path d="M118.944042,166.727001 C123.247673,164.814667 128.372686,166.809007 130.273714,171.13868 C132.144492,175.396099 130.276409,180.384865 126.103083,182.293717 C121.938798,184.194908 116.646535,182.110031 114.731685,177.811958 C112.844392,173.573083 114.734989,168.59929 118.944042,166.727001" id="Fill-18" fill="#FF713F"></path>
                <path d="M404.594216,266.752 C402.930165,262.597306 404.872577,258.111799 409.028491,256.517003 C413.057037,254.972609 417.705409,257.005916 419.384824,261.0493 C421.077619,265.125436 419.15181,269.840788 415.141437,271.432875 C410.980897,273.085132 406.299814,271.007826 404.594216,266.752" id="Fill-19" fill="#FDC607"></path>
                <path d="M328.631871,295.249497 C327.007569,291.342239 328.600122,287.309517 332.430142,285.641334 C336.271199,283.966503 340.676865,285.682161 342.362797,289.504953 C344.050003,293.339252 342.265937,297.847489 338.435492,299.431292 C334.597151,301.020464 330.264237,299.169029 328.631871,295.249497" id="Fill-22" fill="#FF7241"></path>
                <path d="M166.402983,223.682245 C170.311767,221.956554 174.567692,223.602629 176.315815,227.513417 C178.056199,231.410936 176.363439,235.832762 172.518011,237.430863 C168.70677,239.015865 164.272426,237.176535 162.624653,233.325969 C161.000011,229.533159 162.643787,225.340228 166.402983,223.682245" id="Fill-24" fill="#FF7241"></path>
                <path d="M318.610048,318.566426 C322.368889,317.008837 326.731193,318.771827 328.402395,322.527685 C330.016503,326.158572 328.230249,330.832291 324.61518,332.432171 C320.935577,334.059208 316.046627,332.040915 314.546447,328.274939 C313.013481,324.435537 314.812365,320.14088 318.610048,318.566426" id="Fill-25" fill="#48D8F9"></path>
                <path d="M172.831507,25.8239492 C173.854439,35.109309 170.18623,42.1192318 162.738237,47.3174396 C153.710191,53.6175735 139.492151,51.9385332 131.867083,41.4729221 C124.245631,31.0113211 125.728486,17.3007656 135.239495,9.31109686 C141.825235,3.77911174 149.288952,2.7554253 157.321813,5.37436639 C158.596483,5.78971108 159.815072,6.38704636 161.058464,6.90085197 C161.102186,7.07601685 161.147506,7.24853677 161.195096,7.42199523 C157.816126,12.823012 161.195348,21.9025765 167.381199,24.4072723 C169.108646,25.1079318 171.012075,25.3646639 172.831507,25.8239492" id="Fill-30" fill="#45D7F8"></path>
                <path d="M161.135379,7.19533321 C161.0884,7.0255798 161.043863,6.85304632 161,6.681945 C162.64096,4.24145548 164.517232,2.14687538 167.380976,0.990024878 C172.946819,-1.25611174 178.814065,0.366107402 182.539668,5.38457406 C185.915629,9.92663601 185.831522,16.2673258 182.199622,20.6355064 C179.887411,23.4115432 176.925921,25.0542338 173.193329,24.9986322 C173.010299,24.2460728 172.834509,23.4913231 172.637671,22.7429759 C170.862428,16.0358209 167.57773,10.4449104 161.135379,7.19533321" id="Fill-31" fill="#FE703E"></path>
                <path d="M161.298611,8 C167.550458,11.219156 170.738025,16.7577267 172.460773,23.402092 C172.65179,24.1434334 172.822382,24.8911175 173,25.6366317 C172.875651,25.7672407 172.745828,25.8893371 172.604894,26 C170.836556,25.5500042 168.989213,25.299719 167.311319,24.6158789 C161.298856,22.1640193 158.015945,13.2844465 161.298611,8" id="Fill-32" fill="#465F3D"></path>
                <path d="M109.963403,218 C112.253253,218.140807 114.264588,218.883063 115.676847,220.762228 C117.649434,223.382021 117.381579,227.078561 115.106205,229.221171 C112.829357,231.364466 109.377504,231.596801 106.821706,229.777456 C104.16128,227.883293 103.22015,224.377438 104.699763,221.569017 C105.121742,220.771484 105.776554,220.09736 106.324572,219.367273 C107.535637,218.912287 108.74991,218.455929 109.963403,218" id="Fill-33" fill="#FDC607"></path>
                <path d="M110.014053,217.60816 C108.87012,218.072281 107.725451,218.536838 106.583806,219 C105.739932,218.832585 104.851604,218.79036 104.058394,218.477776 C100.665001,217.141334 99.1000702,213.191243 100.527964,209.725601 C101.930608,206.322859 105.441099,205.04513 108.683972,206.756534 C111.649177,208.321634 112.890188,212.460863 111.309649,215.638698 C110.959499,216.341946 110.450331,216.954377 110.014053,217.60816" id="Fill-34" fill="#48D8F9"></path>
                <path d="M148.571766,189.226177 C147.163744,185.977604 148.422487,182.765706 151.61875,181.453201 C154.669083,180.202011 158.136058,181.626006 159.481689,184.68429 C160.835161,187.766726 159.44584,191.300082 156.385707,192.544929 C153.297075,193.802056 149.939038,192.377085 148.571766,189.226177" id="Fill-35" fill="#48D8F9"></path>
                <path d="M492.981609,333 C498.124908,335.972142 499.738659,342.333368 498.702324,346.903745 C497.501455,352.19653 493.23994,356.131308 487.829447,356.882853 C482.635721,357.604229 477.495434,354.952078 474.653363,350.084401 C472.058953,345.637791 472.550315,339.970352 475.898808,335.71541 C482.251237,338.94033 487.979265,338.239496 492.981609,333" id="Fill-36" fill="#FCC504"></path>
                <path d="M495,329.277741 C494.317407,330.616553 493.637227,331.954432 492.953083,333.293924 C491.235958,332.734755 489.552527,331.964029 487.788867,331.6599 C483.002961,330.836178 479.144298,332.763545 475.820524,336 C469.657626,332.481328 468.473838,324.153836 471.86569,318.824828 C475.945306,312.418588 484.419248,311.575842 488.903973,314.933405 C488.364948,315.34344 487.825578,315.744387 487.292671,316.161981 C484.565401,318.303707 483.612908,321.408607 484.723447,324.51648 C485.816492,327.571613 488.703702,329.651511 491.973617,329.643103 C492.983072,329.640131 493.991407,329.404369 495,329.277741" id="Fill-37" fill="#46D7F7"></path>
                <path d="M495.396885,328.627402 C494.419667,328.756529 493.442699,328.996943 492.464646,329 C489.296452,329.008548 486.499056,326.887605 485.440013,323.772184 C484.364021,320.602982 485.286885,317.43681 487.929315,315.25282 C488.445644,314.826986 488.968235,314.418126 489.490493,314 C489.835408,314.06097 490.178486,314.121852 490.521147,314.183861 C494.727678,317.800376 496.450417,322.450514 495.900607,328.049577 L495.396885,328.627402 Z" id="Fill-38" fill="#465F3D"></path>
                <path d="M476,335.578707 C479.277554,332.308333 483.083617,330.358588 487.804753,331.19266 C489.544718,331.498893 491.203087,332.279581 492.898769,332.842867 C492.936253,333.009802 492.967871,333.178367 493,333.345817 C488.056768,338.577008 482.400669,339.276073 476.1269,336.057368 C476.076412,335.898844 476.033234,335.740063 476,335.578707" id="Fill-39" fill="#178E05"></path>
                <path d="M495.221549,328 C495.755139,322.455065 494.082969,317.849881 490,314.268328 C493.767872,313.324803 496.901579,314.903005 498.354607,318.475724 C499.840215,322.134467 498.746858,325.462577 495.221549,328" id="Fill-40" fill="#FF7241"></path>
                <path d="M440.695974,368 C435.531133,366.630442 431.854614,362.509693 431.15558,357.209827 C430.439355,351.778476 432.169115,347.246535 436.903834,344.307402 C441.774314,341.282083 446.918845,341.136359 451.781488,344.437304 C458.483612,348.988398 459.970417,357.411593 455.2523,363.271706 C449.523682,362.214581 444.677219,363.802808 440.695974,368" id="Fill-41" fill="#45D7F8"></path>
                <path d="M202.314218,198.581207 C205.198949,205.288999 204.377352,210.891579 199.880511,215.176629 C194.759702,220.060123 186.595875,220.29446 181.169946,215.712616 C175.567282,210.982417 174.347901,202.902258 178.350502,196.99694 C182.272738,191.20833 189.805015,189.33991 196.225823,192.5848 C197.120878,193.038489 197.965894,193.592308 198.831465,194.100667 C199.992972,195.592088 201.153553,197.08761 202.314218,198.581207" id="Fill-51" fill="#FF703D"></path>
                <path d="M201.616592,198.35887 C200.447721,196.900349 199.278935,195.439948 198.109216,193.983554 C197.829596,191.700528 198.053479,189.492227 199.171702,187.417923 C199.364789,187.390698 199.553295,187.343116 199.734759,187.277875 C202.995432,188.598965 205.589548,187.615199 207.752698,185.129991 C207.945869,185.100886 208.134036,185.058782 208.319318,185 C209.551561,186.21726 211.051716,187.273624 211.957426,188.681701 C213.504581,191.085398 213.288419,193.663971 211.583469,196.000383 C209.798858,198.449455 207.28839,199.353754 204.242522,198.877691 C203.360736,198.741077 202.491336,198.533254 201.616592,198.35887" id="Fill-52" fill="#FCC504"></path>
                <path d="M208.910072,184.542773 C208.718589,184.600967 208.525272,184.644613 208.325232,184.675539 C204.99047,183.397751 202.29355,184.311407 200.074159,186.858338 C199.886169,186.92601 199.691455,186.972898 199.494383,187 C197.634995,185.964634 196.250517,184.576276 195.483973,182.599321 C194.128571,179.114708 195.699904,175.218743 199.199343,173.628449 C202.584311,172.089866 206.93927,173.484542 208.868423,176.632457 C210.501576,179.293615 210.234652,181.899655 208.910072,184.542773" id="Fill-53" fill="#46D7F7"></path>
                <path d="M200,186.465058 C202.152788,184.186341 204.764639,183.370007 208,184.513455 C205.840949,186.771872 203.252711,187.665988 200,186.465058" id="Fill-54" fill="#178E05"></path>
                <path d="M242.467361,179.613259 C246.317658,177.968907 250.679299,179.740075 252.341808,183.625834 C254.045951,187.605727 252.340363,191.843507 248.387509,193.456283 C244.564997,195.015268 240.078366,193.100773 238.553507,189.259101 C237.032558,185.424152 238.746133,181.200501 242.467361,179.613259" id="Fill-60" fill="#FF713F"></path>
                <path d="M742.222053,325.214947 C745.497487,323.027239 749.803785,323.872749 751.914889,327.117859 C753.969411,330.274731 753.013353,334.714171 749.833464,336.804419 C746.536247,338.970498 742.268046,338.117061 740.12414,334.86161 C738.021801,331.669063 738.950697,327.399035 742.222053,325.214947" id="Fill-65" fill="#FDC607"></path>
                <path d="M227.467048,78.6133037 C231.317341,76.9689443 235.679744,78.7398649 237.342251,82.6255576 C239.045628,86.6058095 237.340042,90.8436097 233.387955,92.4561373 C229.564682,94.0153849 225.077969,92.1008808 223.553198,88.2592759 C222.033014,84.4239693 223.745738,80.2006382 227.467048,78.6133037" id="Fill-68" fill="#FF713F"></path>
                <path d="M275.164613,264.816757 C272.041297,257.472154 275.420045,249.025766 282.671062,246.052462 C289.950585,243.065045 298.680619,246.667207 301.822652,253.951507 C304.958332,261.210574 301.607231,269.755071 294.420608,272.831018 C286.966619,276.021669 278.414142,272.462017 275.164613,264.816757" id="Fill-70" fill="#FF703E"></path>
                <path d="M344.652019,331.389174 C342.997649,327.64839 344.60078,323.278225 348.224793,321.646784 C352.081551,319.912155 356.807312,321.798771 358.441476,325.727378 C359.980752,329.430038 358.219984,333.890428 354.613534,335.423764 C350.862918,337.018437 346.330175,335.184347 344.652019,331.389174" id="Fill-71" fill="#FDC505"></path>
                <path d="M324.315661,220.6709 C328.176013,218.963022 332.544376,220.619849 334.308897,224.460152 C336.065657,228.288987 334.356398,232.752607 330.505341,234.387942 C326.633561,236.031263 322.414266,234.266388 320.691703,230.281171 C318.994383,226.356264 320.50298,222.358136 324.315661,220.6709" id="Fill-72" fill="#FDC505"></path>
                <path d="M306.563081,284.44623 C305.069213,280.751852 306.621028,277.112673 310.349722,275.57407 C314.09655,274.027639 318.077478,275.701607 319.534912,279.440558 C320.897965,282.933085 319.165216,286.925545 315.640865,288.406888 C311.902857,289.981908 308.135504,288.338341 306.563081,284.44623" id="Fill-74" fill="#48D8F9"></path>
            </g>
            <g id="Group-634" transform="translate(114.000000, 275.000000)" fill="#46D8F9">
                <polygon id="Fill-383" points="0.59441658 12.4555081 4.04436477 12.4555081 4.04436477 3.55321081 0.59441658 3.55321081 0.59441658 1.17226486 10.1794943 1.17226486 10.1794943 3.55321081 6.7125513 3.55321081 6.7125513 12.4555081 10.1794943 12.4555081 10.1794943 14.8364541 0.59441658 14.8364541"></polygon>
                <path d="M16.6205589,3.29491081 C16.3628041,3.29491081 16.1163793,3.29491081 15.8812843,3.32328919 C15.6461893,3.35166757 15.4592463,3.36585676 15.3147903,3.3913973 L15.3147903,7.8241 C15.3924,7.84169459 15.4708594,7.85474865 15.5498853,7.86382973 C15.6546867,7.86382973 15.765153,7.88653243 15.8812843,7.89220811 C15.9974155,7.89788378 16.1107143,7.89220811 16.2211807,7.89220811 L16.4647731,7.89220811 C16.8145831,7.89192432 17.1635434,7.85872162 17.5071219,7.79288378 C17.8365382,7.73499189 18.1512256,7.6123973 18.4333396,7.43247838 C18.7120546,7.25057297 18.9378024,6.99800541 19.0876401,6.70031622 C19.2646694,6.31578919 19.3482273,5.89465405 19.3312325,5.47153243 C19.3451116,5.10261351 19.2641029,4.73624865 19.0961375,4.40734324 C18.9488491,4.13576216 18.7381133,3.90391081 18.4814915,3.73193784 C18.2183551,3.55911351 17.9240615,3.43935676 17.6147558,3.38004595 C17.2873223,3.31619459 16.9542238,3.28384324 16.6205589,3.28355946 L16.6205589,3.29491081 Z M12.6551012,1.30842432 C13.2009181,1.20626216 13.8014017,1.1251 14.456552,1.06437027 C15.113685,1.00761351 15.765153,0.976397297 16.4166211,0.976397297 C17.0986798,0.977532432 17.7798888,1.03343784 18.4531668,1.14382973 C19.1040684,1.24400541 19.7291945,1.46961351 20.2942722,1.80788378 C20.8483033,2.14955946 21.3071634,2.62603243 21.6283655,3.19274865 C22.001685,3.90845135 22.1795641,4.71014054 22.143875,5.51693784 C22.1639855,6.25562703 22.0104656,6.98835676 21.6963447,7.65666757 C21.4150805,8.22764054 21.0083378,8.72738378 20.5067074,9.11815405 C20.0028111,9.51318108 19.424704,9.80264054 18.8072256,9.96950541 C18.1699199,10.1465865 17.5113706,10.2354108 16.8499889,10.2334243 L16.5384173,10.2334243 L16.090887,10.2334243 C15.9351012,10.2334243 15.7821478,10.2163973 15.6320269,10.2022081 C15.481906,10.1880189 15.3742722,10.1766676 15.3091254,10.1653162 L15.3091254,14.8704514 L12.6409389,14.8704514 L12.6551012,1.30842432 Z" id="Fill-385"></path>
                <polygon id="Fill-387" points="24.5600566 1.17220811 33.2132518 1.17220811 33.2132518 3.55315405 27.2310756 3.55315405 27.2310756 6.93018108 32.7827164 6.93018108 32.7827164 9.31396486 27.2310756 9.31396486 27.2310756 14.8363973 24.5600566 14.8363973"></polygon>
                <path d="M35.8813534,10.3667743 L38.025533,10.3667743 L38.025533,12.2993419 L38.1416642,12.3390716 C38.4589009,12.476423 38.7877506,12.5836932 39.1245313,12.6597473 C39.4961513,12.7460176 39.8762687,12.7888689 40.2575192,12.78745 C40.85602,12.8249095 41.4514052,12.6708149 41.957001,12.3475851 C42.3473154,12.08395 42.5758957,11.6384095 42.5631496,11.1670446 C42.5750459,10.7510176 42.3900857,10.3534365 42.0646349,10.0943419 C41.6924484,9.79580135 41.2794743,9.55231486 40.8381755,9.37069324 C40.3509907,9.16267973 39.8184864,8.95438243 39.2406625,8.74636892 C38.679267,8.54686892 38.1430805,8.28209865 37.6431496,7.95745 C37.1590805,7.6407473 36.7412912,7.23181486 36.4138577,6.75420676 C36.060932,6.19572027 35.8875848,5.54188243 35.9181755,4.88123378 C35.9116608,4.32643649 36.0280753,3.77703108 36.2580718,3.27217973 C36.4824035,2.78832838 36.8078542,2.35867973 37.2126142,2.01217973 C37.6468318,1.64723378 38.1467627,1.36884189 38.6854984,1.19204459 C39.3018439,0.992544595 39.9470805,0.896625676 40.5945831,0.908260811 C41.3783275,0.90731617 42.1606556,0.978639189 42.9313706,1.12109865 C43.5689596,1.22042297 44.187571,1.41538243 44.7668111,1.70001757 L44.7668111,5.67299054 L42.6226314,5.67299054 L42.6226314,3.49636892 C42.5832601,3.49523378 42.5438888,3.48870676 42.5065002,3.47650405 C42.2020097,3.39477432 41.892704,3.33205811 41.5802826,3.28920676 C41.2545485,3.24436892 40.9262653,3.22138243 40.5974155,3.22109865 C40.0802066,3.19357162 39.566963,3.32297703 39.1245313,3.59285541 C38.7843516,3.8082473 38.5815468,4.18596351 38.5894777,4.58893649 C38.584096,5.00155811 38.7741547,5.39204459 39.1018715,5.64177432 C39.4757575,5.9431527 39.8884484,6.19288243 40.3283309,6.38528784 C40.8155157,6.60663919 41.34802,6.82799054 41.9258439,7.04934189 C42.4852566,7.26161216 43.0208767,7.53262568 43.5233568,7.85812568 C44.0068594,8.17482838 44.4243655,8.58234189 44.7526487,9.05853108 C45.0987765,9.59913919 45.2718404,10.2328284 45.2483309,10.8747473 C45.2624933,11.5118419 45.1288007,12.1432608 44.8574501,12.7193419 C44.6033775,13.2420716 44.230058,13.696977 43.7669492,14.04745 C43.2721168,14.4180716 42.7101547,14.6896527 42.1127869,14.8477203 C40.9888629,15.1400176 39.8162204,15.1902473 38.6716193,14.9955716 C38.2764898,14.9271797 37.8864587,14.8323959 37.5043585,14.7115041 C37.1811737,14.6099095 36.8653534,14.4867473 36.5583136,14.3425851 C36.2863965,14.2120446 36.0654639,14.1013689 35.8955157,14.0105581 L35.8813534,10.3667743 Z" id="Fill-389"></path>
                <path d="M62.5574687,10.2505081 L64.6990991,10.2505081 L64.6990991,14.155373 C64.2175793,14.4845622 63.6799765,14.7220892 63.1126328,14.8563189 C62.4656967,15.0274405 61.7992166,15.1128595 61.129904,15.1115179 C60.3002736,15.1151297 59.4751751,14.9868595 58.6854826,14.7314541 C57.9218487,14.4820081 57.2250611,14.060873 56.64922,13.4998324 C56.0272097,12.8755081 55.5488055,12.1231973 55.2468642,11.2948324 C54.870429,10.2402919 54.6917002,9.12530541 54.7200249,8.00577838 C54.6851855,6.8539 54.8877071,5.70712973 55.3151268,4.63726486 C55.6598383,3.80606216 56.1818625,3.06027838 56.8443772,2.45212973 C57.4465603,1.9101027 58.1572269,1.50372432 58.929075,1.26023784 C59.6615516,1.0246973 60.4260352,0.903237838 61.1950508,0.899832432 C61.8615309,0.887345946 62.5268781,0.953183784 63.1777796,1.09564324 C63.6355067,1.19695405 64.080771,1.34735946 64.5064912,1.54402162 L64.5064912,5.60496757 L62.3623116,5.60496757 L62.3623116,3.37726486 C61.9496207,3.31312973 61.5332477,3.28077838 61.1157416,3.28077838 C60.6291233,3.27538649 60.1467537,3.37187297 59.6995067,3.56456216 C59.2584912,3.75923784 58.8698763,4.05721081 58.5665188,4.43294054 C58.2155758,4.86826486 57.9538556,5.36885946 57.796087,5.90577838 C57.5989472,6.58799459 57.5034929,7.29546757 57.5128401,8.00577838 C57.5063254,8.65479189 57.5912995,9.30153514 57.7649299,9.92699459 C57.9147675,10.4684541 58.1668573,10.9761432 58.507037,11.4225351 C58.8220076,11.8323189 59.2287503,12.162927 59.694125,12.3874 C60.1932062,12.622373 60.7398729,12.7398595 61.2913547,12.7307784 C61.7108435,12.7319135 62.1289161,12.6919 62.5404739,12.6115892 L62.5574687,10.2505081 Z" id="Fill-391"></path>
                <path d="M70.6670563,12.8953162 C71.1528249,12.9299378 71.6371772,12.8107486 72.052134,12.5547757 C72.3285831,12.3643568 72.5591461,12.1140595 72.7262618,11.8226135 L72.7262618,10.6505865 C72.5985174,10.6250459 72.4061927,10.5966676 72.1597679,10.5626135 C71.8853016,10.5299784 71.6088525,10.5138027 71.3326867,10.5143558 C71.0862618,10.5146541 70.8409699,10.5373568 70.599077,10.5824784 C70.371913,10.6233432 70.1518301,10.6959919 69.9444933,10.7981541 C69.762932,10.8864108 69.6045969,11.0169514 69.4828007,11.1784243 C69.3646867,11.3435865 69.3040718,11.5428027 69.3103033,11.7459919 C69.2901927,12.062127 69.4054743,12.3717351 69.6272566,12.5973432 C69.9274984,12.8266405 70.3028007,12.9339108 70.6783862,12.8981541 L70.6670563,12.8953162 Z M67.3502342,5.74112703 C67.9308905,5.48458649 68.5339233,5.28224865 69.1514017,5.13666757 C69.947609,4.95391081 70.7625105,4.86820811 71.5791116,4.88126216 C72.1623171,4.86849189 72.7441064,4.95078919 73.3012532,5.12531622 C73.7334881,5.2621 74.1277679,5.49934324 74.4509527,5.81774865 C74.7418473,6.12111351 74.9554155,6.49003243 75.0743793,6.89328919 C75.2114708,7.35358649 75.2771841,7.83204595 75.2698197,8.31220811 C75.2698197,8.97626216 75.2471599,9.54382973 75.2018404,10.0149108 C75.1576539,10.4306541 75.1349941,10.8483838 75.1338611,11.2663973 C75.1338611,11.5501811 75.1338611,11.8339649 75.1704,12.1830189 C75.1970252,12.3723027 75.2165693,12.5482486 75.2298819,12.7108568 L76.4959959,12.7108568 L76.4959959,14.8591 L73.2358231,14.8591 L72.9811841,13.5309919 L72.8845969,13.5309919 C72.6010667,13.9592216 72.2232152,14.3165054 71.7802169,14.5753162 C71.186248,14.8959919 70.5163689,15.0481 69.8428076,15.0151811 C69.0032636,15.0600189 68.1787316,14.7796405 67.5400097,14.2319378 C66.967001,13.7006946 66.6565623,12.9444108 66.6902687,12.1631541 C66.6769561,11.6730595 66.7797748,11.1866541 66.9905105,10.7442351 C67.1907661,10.3486405 67.4904415,10.0123568 67.8600788,9.76801892 C68.2815503,9.49842432 68.7477748,9.3063027 69.2363758,9.20045135 C69.8241133,9.07104595 70.4251634,9.00918108 71.02678,9.01599189 C71.2590425,9.01599189 71.5054674,9.01599189 71.7629389,9.05288378 C72.0206936,9.08977568 72.3294328,9.1068027 72.7120995,9.13234324 C72.7370252,9.00322162 72.7492048,8.87211351 72.7489216,8.74072162 L72.7489216,8.35477568 C72.7880097,7.95208649 72.6296746,7.55507297 72.3240511,7.29058649 C71.9504484,7.04965405 71.5094328,6.93614054 71.0661513,6.96707297 C70.463685,6.95912703 69.8634846,7.04511351 69.2876435,7.22247838 C68.8324656,7.36238378 68.3869181,7.53095135 67.9535503,7.72761351 L67.3502342,5.74112703 Z" id="Fill-393"></path>
                <path d="M81.9825465,14.8392635 L81.9825465,8.87980405 C81.9887779,8.56196622 81.9635689,8.24441216 81.9060698,7.93196622 C81.8686812,7.73275 81.7990024,7.54091216 81.6992995,7.36439865 C81.6318867,7.23612838 81.5214204,7.1359527 81.3877278,7.08061486 C81.2664981,7.03520946 81.137904,7.01222297 81.0084601,7.01250676 C80.7849782,7.01307432 80.5685775,7.08884459 80.3938142,7.22818243 C80.2108366,7.36326351 80.0774273,7.55481757 80.0142632,7.7730473 L80.0142632,14.8421014 L77.6774756,14.8421014 L77.6774756,5.07710135 L79.5267952,5.07710135 L79.8100421,6.14980405 L79.8666915,6.14980405 C80.0626984,5.77010135 80.3561423,5.44999324 80.7164325,5.22183108 C81.1146777,4.97664189 81.5749541,4.85120946 82.0420283,4.86142568 C82.470581,4.86199324 82.8917693,4.96926351 83.2684877,5.17358784 C83.6786294,5.40770946 83.969524,5.80642568 84.0672442,6.26899324 C84.247106,5.83565541 84.5620767,5.47241216 84.9651371,5.23318243 C85.3594169,4.99565541 85.8111959,4.87135811 86.2711889,4.87277703 C86.591258,4.86766892 86.9104774,4.91761486 87.2144014,5.02034459 C87.4984981,5.11597973 87.7511544,5.28766892 87.9451786,5.51696622 C88.1763081,5.81238514 88.3397416,6.15547973 88.4235827,6.52156081 C88.5456622,7.05649324 88.6008953,7.60476351 88.587866,8.15331757 L88.587866,14.83075 L86.2510784,14.83075 L86.2510784,8.58750676 C86.2510784,8.00291216 86.1547744,7.59142568 85.9678314,7.35872297 C85.8058142,7.13623649 85.5460767,7.00626351 85.2710439,7.00966892 C85.0574756,7.00484459 84.8467399,7.06188514 84.6651786,7.17426351 C84.4853168,7.30366892 84.3609713,7.49635811 84.3165016,7.7134527 L84.3165016,14.8392635 L81.9825465,14.8392635 Z" id="Fill-395"></path>
                <path d="M95.1848014,6.94998919 C94.7078135,6.9463 94.239323,7.07485405 93.8308808,7.32174595 C93.4184732,7.57261081 93.1148325,7.96962432 92.9811399,8.43417838 L92.9811399,12.4951243 C93.2170846,12.6642595 93.4867358,12.780327 93.771399,12.8356649 C94.1124283,12.9205162 94.4622383,12.9633676 94.8134646,12.9633676 C95.1593092,12.9662054 95.5023212,12.9034892 95.8249396,12.7789081 C96.1424594,12.6503541 96.4234404,12.4457459 96.6435233,12.1829622 C96.8947634,11.8790297 97.0808566,11.5262865 97.19019,11.1471514 C97.3303972,10.6596108 97.3963938,10.1533405 97.3856304,9.64593514 C97.3856304,8.79458378 97.1760276,8.12201622 96.762487,7.65944865 C96.369057,7.19858378 95.7901002,6.93835405 95.1848014,6.94998919 L95.1848014,6.94998919 Z M88.9788601,5.07701622 L92.2900173,5.07701622 L92.5732642,6.24904324 L92.6528566,6.24904324 C93.3267012,5.28417838 94.4180518,4.80288108 95.9269085,4.80458378 C96.488304,4.79919189 97.0454508,4.89539459 97.5725734,5.08836757 C98.0702383,5.27282703 98.5146528,5.57675946 98.8670121,5.97377297 C99.2457133,6.41846216 99.5272608,6.93778649 99.6940933,7.49769189 C100.095454,8.95946216 100.082708,10.5040973 99.6572712,11.958773 C99.4581485,12.5862189 99.1324145,13.1657054 98.6998964,13.6614757 C98.2829568,14.1317054 97.7634819,14.4989216 97.1816926,14.7341784 C96.5310743,14.9912865 95.8359862,15.1175703 95.1366494,15.1059351 C94.7384041,15.1067865 94.3410086,15.0775568 93.9470121,15.0182459 C93.6093817,14.9742595 93.2808152,14.8786243 92.9726425,14.7341784 L92.9726425,18.7355297 L90.4404145,18.7355297 L90.4404145,7.21958378 L88.9788601,7.21958378 L88.9788601,5.07701622 Z" id="Fill-397"></path>
                <path d="M2.97658031,26.4914623 C3.19468048,26.4920216 3.41193092,26.4633595 3.62238342,26.4063189 C3.82405527,26.3560892 4.01581347,26.2720892 4.18887737,26.1565892 C4.34522971,26.0467649 4.47495682,25.9031703 4.56842832,25.7365892 C4.66614853,25.5532649 4.71486701,25.348373 4.71005181,25.1406432 C4.72223143,24.8985757 4.66218307,24.6584946 4.53727116,24.4510486 C4.42567185,24.2785081 4.27158549,24.1377514 4.08974093,24.0424 C3.89458377,23.9422243 3.68384801,23.8749676 3.46659758,23.8437514 C3.23886701,23.8096973 3.00858722,23.7926703 2.77830743,23.7926703 L1.85492228,23.7926703 L1.85492228,26.4176703 C1.9237513,26.4338459 1.99399655,26.4443459 2.06452504,26.4488865 L2.34777202,26.4687514 C2.4525734,26.4687514 2.56020725,26.4687514 2.67350604,26.4854946 L2.97658031,26.4914623 Z M2.41008636,23.0605081 L2.83778929,23.0605081 C3.00490501,23.0605081 3.14369603,23.0434811 3.25699482,23.0292919 C3.4184456,22.9748054 3.57479793,22.9066973 3.72435233,22.8249676 C3.8676753,22.7483459 3.99995164,22.6529946 4.11806563,22.5411838 C4.22909845,22.431927 4.32002073,22.3042243 4.38715026,22.1637514 C4.45626252,22.0204405 4.4911019,21.8629405 4.48911917,21.7040216 C4.49478411,21.5065081 4.4488981,21.3106973 4.35599309,21.1364541 C4.27300173,20.9866162 4.15290501,20.8606162 4.00759931,20.770373 C3.8537962,20.6770081 3.68356477,20.6134405 3.50625216,20.5830757 C3.31930915,20.5484541 3.12981693,20.5302919 2.9397582,20.5291568 C2.71032815,20.5291568 2.50072539,20.5291568 2.30811744,20.5461838 C2.16281174,20.5521432 2.01807254,20.5671838 1.87474957,20.5915892 L1.87474957,23.0832108 L2.41008636,23.0605081 Z M5.3955095,21.5110486 C5.39409326,21.6918189 5.36661831,21.8717378 5.31336788,22.0445622 C5.25785147,22.2267514 5.17259413,22.3981568 5.06127807,22.5525351 C4.94486356,22.7142919 4.80125734,22.8547649 4.6364076,22.9668595 C4.44748187,23.0897378 4.23986183,23.1808324 4.02176166,23.2364541 L4.02176166,23.2790216 C4.22768221,23.3125081 4.42878756,23.3726703 4.61941278,23.4578054 C4.80862176,23.5392514 4.98055268,23.6558865 5.12642487,23.8011838 C5.27597927,23.9558459 5.39579275,24.1366162 5.48048359,24.3344135 C5.57367185,24.5710892 5.61899136,24.8239405 5.61360967,25.0782108 C5.62295682,25.4193189 5.54279793,25.7567378 5.38134715,26.0572649 C5.23065976,26.3257243 5.0204905,26.5561568 4.76670121,26.7298324 C4.50186528,26.9094676 4.20757168,27.0411432 3.89713299,27.1186162 C3.57026598,27.2014811 3.23433506,27.2431973 2.89727116,27.2431973 L2.4808981,27.2431973 C2.32029706,27.2431973 2.15318135,27.2378054 1.97955095,27.2264541 C1.80677029,27.2264541 1.63115717,27.2037514 1.45837651,27.1867243 C1.30485665,27.1708324 1.15246978,27.1441568 1.00234888,27.1072649 L1.00234888,19.9019946 C1.25727116,19.859427 1.56884283,19.825373 1.89740933,19.7969946 C2.22597582,19.7686162 2.60835924,19.754427 3.01056995,19.754427 C3.28758549,19.7549946 3.56431779,19.7776973 3.83765112,19.8225351 C4.10673575,19.8639676 4.36675648,19.9519405 4.60525043,20.0836162 C4.83496373,20.2147243 5.02927116,20.3997514 5.17174439,20.6228054 C5.33149568,20.8906973 5.4093886,21.1994541 5.3955095,21.5110486 L5.3955095,21.5110486 Z" id="Fill-602"></path>
                <path d="M8.88230812,26.5538014 C9.06698515,26.5557878 9.25052919,26.5231527 9.42330984,26.4573149 C9.72581762,26.3483419 9.98838756,26.1505446 10.1767468,25.8897473 C10.2520905,25.7881527 10.3146881,25.677477 10.3636898,25.5605581 L10.3636898,24.8283959 C10.0328573,24.7688014 9.69720967,24.7375851 9.36099551,24.7347473 C9.09332712,24.7302068 8.82622522,24.7634095 8.56790397,24.8340716 C8.36934784,24.8879905 8.18920276,24.994977 8.04672953,25.1433959 C7.91813541,25.2940851 7.85157237,25.4876257 7.85978653,25.685423 C7.85553782,25.9087608 7.93881244,26.1247203 8.09204905,26.2873284 C8.30590052,26.4839905 8.59311295,26.5807608 8.88230812,26.5538014 L8.88230812,26.5538014 Z M7.33577962,22.3367743 C7.65131675,22.1579905 7.99376235,22.0311392 8.3498038,21.9621797 C8.71320967,21.8864095 9.08313022,21.8472473 9.45446701,21.8458284 C9.75414231,21.8347608 10.0524014,21.8920851 10.3268677,22.0132608 C10.5378867,22.1108824 10.7211475,22.2601527 10.859372,22.44745 C10.9896656,22.6282203 11.0786052,22.8353824 11.1199592,23.0547473 C11.1652788,23.2800716 11.1879385,23.5090851 11.1879385,23.7386662 C11.1879385,24.0057068 11.1879385,24.2863689 11.1681112,24.5900176 C11.1482839,24.8936662 11.142619,25.1888014 11.1369541,25.4896122 C11.1355378,25.8216392 11.1562149,26.1536662 11.1992684,26.4828554 L11.9102183,26.4828554 L11.9102183,27.1610986 L10.5308055,27.1610986 L10.437334,26.3778554 L10.3863496,26.3778554 C10.3274342,26.4615716 10.2639869,26.5421662 10.1965741,26.6190716 C10.0988539,26.7266257 9.98867081,26.821977 9.8680076,26.9028554 C9.71278826,27.0058689 9.54538929,27.0890176 9.36949292,27.1500311 C9.14657755,27.2232473 8.91289879,27.2587203 8.67837029,27.2547473 C8.23537202,27.2791527 7.79917168,27.1375446 7.45474335,26.85745 C7.14968636,26.5799095 6.98455337,26.1803419 7.00438066,25.7677203 C6.99220104,25.4547068 7.07405941,25.1453824 7.23947565,24.8797608 C7.40545838,24.6348554 7.63998687,24.4452878 7.91360345,24.3346122 C8.25208359,24.2000986 8.61152401,24.1260311 8.97577962,24.1160986 C9.44370363,24.0982203 9.91247737,24.1257473 10.3750197,24.1983959 C10.4081596,23.9339095 10.4138245,23.6665851 10.3920145,23.4009635 C10.3778522,23.2201932 10.3195033,23.04595 10.2220663,22.8932743 C10.13341,22.7655716 10.0048159,22.6716392 9.85667772,22.6262338 C9.67313368,22.5697608 9.48194197,22.5428014 9.29018377,22.5467743 C8.98512677,22.5450716 8.68148601,22.5887743 8.38945838,22.6773149 C8.1062114,22.7652878 7.84845665,22.8532608 7.62469154,22.9440716 L7.33577962,22.3367743 Z" id="Fill-604"></path>
                <path d="M13.1621133,27.1582324 L13.1621133,26.4572865 L14.5783482,26.4572865 L14.5783482,22.6318811 L13.1621133,22.6318811 L13.1621133,21.9309351 L15.113685,21.9309351 L15.2808007,22.6094622 L15.3346176,22.6094622 C15.5736781,22.3906649 15.8402135,22.2045027 16.1277092,22.0560838 C16.4514604,21.8954622 16.8092014,21.8165703 17.170058,21.8259351 C17.3680477,21.8168541 17.5643378,21.8639622 17.736552,21.9621514 C17.8846902,22.0583541 18.0011047,22.1968405 18.0707834,22.3594486 C18.1571737,22.5609351 18.2115572,22.7743405 18.2322342,22.9922865 C18.2628249,23.2749351 18.2769872,23.5592865 18.2747212,23.8436378 L17.543944,23.8436378 C17.5595226,23.5130297 17.5153361,23.1824216 17.4136504,22.8674216 C17.3402895,22.6707595 17.147115,22.5447595 16.9377955,22.5580973 C16.7392394,22.5552595 16.5420995,22.5870432 16.3543067,22.6517459 C16.192856,22.7073676 16.0393361,22.7848405 15.8982791,22.8818946 C15.7821478,22.9633405 15.672248,23.0533 15.5697126,23.1512054 C15.4969181,23.2218676 15.4306383,23.298773 15.3714397,23.3810703 L15.3714397,26.4572865 L17.3768283,26.4572865 L17.3768283,27.1582324 L13.1621133,27.1582324 Z" id="Fill-606"></path>
                <path d="M23.3194632,22.7341 C23.1497983,22.6767757 22.9767344,22.6302351 22.8011212,22.5950459 C22.6215427,22.5558838 22.4382819,22.5357351 22.2541713,22.5354514 C21.5726791,22.5354514 21.0648173,22.6963568 20.7303026,23.0178838 C20.3963544,23.3396946 20.2292387,23.8505054 20.2292387,24.5503162 C20.2244235,24.8315459 20.2734252,25.1107892 20.3736946,25.3732892 C20.4665997,25.6059919 20.6099226,25.8151405 20.7929002,25.9862622 C20.9815427,26.1582351 21.2030418,26.2907622 21.4443682,26.3750459 C21.7177016,26.4692622 22.004914,26.5155189 22.2941092,26.5112622 C22.6195599,26.5115459 22.943028,26.4536541 23.2486515,26.3409919 C23.5333147,26.2413838 23.7973009,26.0904108 24.0275807,25.8954514 L24.3929693,26.5001946 C24.2776877,26.5955459 24.155325,26.6829514 24.0275807,26.7609919 C23.6791869,26.9766676 23.2956705,27.1293432 22.8945927,27.2122081 C22.6456187,27.2627216 22.3923959,27.2874108 22.1383233,27.2859919 C21.7312974,27.2936541 21.3262542,27.2272486 20.9427378,27.0901811 C20.6198363,26.9692892 20.3289416,26.7748973 20.0929969,26.5226135 C19.8579019,26.2751541 19.6800228,25.9786 19.5721057,25.6542351 C19.4477603,25.2890054 19.3874287,24.9047622 19.3936601,24.5191 C19.3860124,24.1206676 19.4483268,23.7239378 19.5777706,23.347073 C19.7933216,22.7000459 20.294952,22.1889514 20.9373561,21.9622081 C21.2888656,21.8356405 21.6602024,21.7732081 22.0335219,21.7777486 C22.7521195,21.7496541 23.4667516,21.900627 24.1125547,22.2176135 L24.1125547,22.2488297 L24.1125547,23.7046405 L23.361667,23.7046405 L23.3194632,22.7341 Z" id="Fill-608"></path>
                <path d="M28.3385147,22.49575 C28.1195648,22.4940473 27.9006149,22.5178851 27.6870466,22.5666959 C27.492456,22.6132365 27.3086287,22.6969527 27.1460449,22.8135878 C26.9862936,22.9339122 26.8545838,23.0880068 26.760829,23.2648041 C26.6529119,23.4779257 26.5871986,23.7103446 26.5682211,23.948723 L29.805734,23.948723 C29.7969534,23.5485878 29.639468,23.1657635 29.3638687,22.8760203 C29.0868532,22.6169257 28.7174991,22.4798581 28.3385147,22.49575 L28.3385147,22.49575 Z M30.5223489,26.4999392 C30.3855406,26.6199797 30.2362694,26.7255473 30.0776511,26.8149392 C29.8972228,26.9159662 29.7074473,26.9996824 29.5111572,27.0646689 C29.3055199,27.13675 29.0942176,27.1906689 28.8795164,27.2264257 C28.6608497,27.2664392 28.4387841,27.2863041 28.2167185,27.2860203 C27.8383005,27.2931149 27.4621485,27.2267095 27.1092228,27.0899257 C26.8007668,26.9673311 26.5263005,26.7726554 26.3076339,26.5223581 C26.0869845,26.2754662 25.919019,25.9860068 25.8147841,25.6710068 C25.6986528,25.3043581 25.6420035,24.9209662 25.6476684,24.5358716 C25.6417202,24.137723 25.7037513,23.7415608 25.8317789,23.3641284 C26.0493126,22.7125608 26.5571744,22.1997635 27.2055268,21.9764257 C27.556753,21.8495743 27.9283731,21.7871419 28.3016926,21.7919662 C28.5942867,21.7925338 28.8860311,21.8316959 29.1684283,21.9083176 C29.453658,21.9857905 29.7136788,22.1353446 29.9246978,22.3425068 C30.163475,22.5893986 30.3379551,22.8916284 30.4317098,23.2222365 C30.558038,23.6936014 30.5999585,24.1834122 30.5563385,24.6695338 L26.5229016,24.6695338 C26.479848,25.1936824 26.6648083,25.7107365 27.0299136,26.0884527 C27.4023834,26.4119662 27.8856028,26.5788311 28.3781693,26.5538581 C28.5690777,26.5547095 28.7594197,26.5320068 28.9446632,26.48575 C29.1233921,26.4420473 29.2992884,26.3881284 29.4715026,26.3239932 C29.6247392,26.2675203 29.7725941,26.1974257 29.9133679,26.1139932 C30.0184525,26.0526959 30.1178722,25.9826014 30.2107772,25.9039932 L30.5223489,26.4999392 Z" id="Fill-610"></path>
                <path d="M32.5050777,19.8394486 L34.2498791,19.8394486 L34.2498791,25.4018946 C34.2207047,25.7168946 34.2951986,26.0327459 34.4623143,26.3014892 C34.6203661,26.482827 34.8540449,26.5795973 35.0939551,26.5622865 C35.287696,26.5648405 35.480304,26.5290838 35.6604491,26.4572865 C35.8731675,26.3684622 36.0714404,26.2487054 36.2496028,26.1025568 L36.6263212,26.6701243 C36.5133057,26.7688811 36.390943,26.8565703 36.2609326,26.9312054 C35.9992124,27.0824622 35.715399,27.1917189 35.4196891,27.2547189 C35.2919447,27.2796919 35.1619344,27.2930297 35.0316408,27.2947324 C34.7973955,27.2989892 34.5642832,27.2655027 34.3405181,27.1951243 C34.1462107,27.1349622 33.9705976,27.0254216 33.8306736,26.8772865 C33.6842349,26.7098541 33.5785838,26.5109216 33.5219344,26.2955297 C33.4463074,26.0038 33.4111848,25.7029892 33.417133,25.4018946 L33.417133,20.5406784 L32.4994128,20.5406784 L32.5050777,19.8394486 Z" id="Fill-612"></path>
                <path d="M38.9884877,24.5445838 C38.9884877,24.7911919 39.0179454,25.0369486 39.0765775,25.2767459 C39.1301112,25.5117189 39.226132,25.734773 39.3598245,25.9351243 C39.4912511,26.1315027 39.6679972,26.2926919 39.875334,26.4064892 C40.1141112,26.5319216 40.3814964,26.5937865 40.6511475,26.5849892 C41.1267192,26.6184757 41.5906777,26.4260703 41.9030991,26.0656649 C42.2141043,25.6223946 42.3630922,25.0851919 42.3251371,24.5445838 C42.3257036,24.2959892 42.2965292,24.0482459 42.2376138,23.8067459 C42.1837969,23.5734757 42.0877762,23.3524081 41.9543668,23.154327 C41.8189748,22.9590838 41.6405292,22.7978946 41.4331924,22.6829622 C41.1949817,22.5575297 40.9287295,22.4959486 40.6596449,22.5044622 C40.1863392,22.4706919 39.7243634,22.6605432 39.4105257,23.017827 C39.100087,23.4633676 38.9508159,24.002273 38.9884877,24.5445838 M38.121752,24.5445838 C38.0818142,23.8175297 38.3163427,23.1023946 38.7791682,22.5410703 C39.2657865,22.0296919 39.9529437,21.7598135 40.6570957,21.8032324 C41.0457105,21.7944351 41.4317762,21.8679351 41.7900836,22.0191919 C42.0911751,22.1485973 42.3608263,22.3421378 42.5803427,22.5867595 C42.7924946,22.8413135 42.9502632,23.1367324 43.0445845,23.4548541 C43.1465534,23.805327 43.1969713,24.1685703 43.1949886,24.5332324 C43.1995206,24.9180432 43.1431544,25.3014351 43.0278729,25.6683676 C42.9261872,25.9836514 42.7593547,26.2739622 42.5375724,26.5197189 C42.316923,26.7615027 42.0435896,26.9488 41.7388159,27.0677054 C41.3943876,27.2027865 41.026733,27.2694757 40.6570957,27.2632324 C40.2684808,27.2717459 39.882132,27.1985297 39.5241078,27.0475568 C39.220467,26.9201378 38.9496829,26.7260297 38.7310162,26.4799892 C38.5180145,26.2257189 38.3596794,25.9300162 38.2662079,25.6116108 C38.166505,25.264827 38.1177865,24.905273 38.121752,24.5445838" id="Fill-614"></path>
                <path d="M44.7668394,23.7614257 L44.7668394,23.5145338 C44.7668394,23.4123716 44.7668394,23.3102095 44.7498446,23.1995338 C44.7328497,23.0888581 44.7498446,22.9866959 44.7243523,22.8816959 C44.7169879,22.7863446 44.7048083,22.6915608 44.6875302,22.5979122 L43.9879102,22.5979122 L43.9879102,21.9196689 L45.3871503,21.9196689 L45.4806218,22.7710203 L45.5344387,22.7710203 C45.6120484,22.6421824 45.7075026,22.5246959 45.8176857,22.4219662 C45.9372159,22.3007905 46.0711917,22.1946554 46.2170639,22.1069662 C46.3776649,22.0107635 46.5501623,21.935277 46.7297409,21.882777 C46.9226321,21.8251689 47.123171,21.7965068 47.3245596,21.7976419 C47.6112055,21.7942365 47.8970017,21.8294257 48.1743005,21.9026419 C48.411095,21.9656419 48.6249465,22.0944797 48.7917789,22.2743986 C48.9702245,22.4821284 49.0971192,22.7290203 49.1628325,22.9952095 C49.254038,23.3743446 49.2959585,23.7634122 49.2874611,24.1530473 L49.2874611,27.1526419 L48.4490501,27.1526419 L48.4490501,24.3148041 C48.4770915,23.8624527 48.3790881,23.4118041 48.1658031,23.0122365 C47.9788601,22.7284527 47.6389637,22.5723716 47.146114,22.5723716 C46.9648359,22.5723716 46.7852573,22.6098311 46.6192746,22.6830473 C46.4518756,22.7537095 46.2960898,22.8493446 46.157582,22.9668311 C46.017658,23.0865878 45.8947288,23.2250743 45.7921934,23.3783176 C45.6916408,23.5309932 45.6151641,23.6987095 45.5655959,23.8749392 L45.5655959,27.1498041 L44.7668394,27.1498041 L44.7668394,23.7614257 Z" id="Fill-616"></path>
                <path d="M52.7259661,26.5538014 C52.9117762,26.5560716 53.0964532,26.5234365 53.2698003,26.4573149 C53.4267192,26.4005581 53.5734411,26.3202473 53.7060007,26.2189365 C53.8255309,26.1275581 53.9314653,26.0194365 54.0204048,25.8982608 C54.0957485,25.7963824 54.1586294,25.6857068 54.2073478,25.5690716 L54.2073478,24.8369095 C53.8765154,24.7773149 53.5411509,24.7460986 53.2046535,24.7432608 C52.9369851,24.7387203 52.6701665,24.7722068 52.4118453,24.8425851 C52.2130059,24.8965041 52.033144,25.0032068 51.8906708,25.1521932 C51.7620767,25.3025986 51.6952304,25.4958554 51.7037278,25.6939365 C51.7000456,25.9178419 51.7844532,26.1338014 51.9388228,26.2955581 C52.1529575,26.4893824 52.4387537,26.5833149 52.7259661,26.5538014 L52.7259661,26.5538014 Z M51.1794377,22.3367743 C51.4949748,22.1579905 51.8374204,22.0311392 52.1934618,21.9621797 C52.5577174,21.8864095 52.9290542,21.8472473 53.3009575,21.8458284 C53.5997831,21.8353284 53.8971924,21.8923689 54.170809,22.0132608 C54.381828,22.1108824 54.5648055,22.2601527 54.7030301,22.44745 C54.8333237,22.6282203 54.9225465,22.8353824 54.9636173,23.0547473 C55.0089368,23.2800716 55.0318798,23.5090851 55.0318798,23.7386662 C55.0318798,24.0057068 55.0318798,24.2863689 55.0117693,24.5900176 C54.991942,24.8936662 54.986277,25.1888014 54.9806121,25.4896122 C54.9791959,25.8216392 54.9998729,26.1536662 55.0432097,26.4828554 L55.7425465,26.4828554 L55.7425465,27.1610986 L54.3631337,27.1610986 L54.2696622,26.3778554 L54.218961,26.3778554 C54.1597623,26.4615716 54.0965983,26.5421662 54.0291855,26.6190716 C53.9320318,26.7271932 53.8215655,26.8225446 53.7003358,26.9028554 C53.5453997,27.0058689 53.3780007,27.0890176 53.2021043,27.1500311 C52.9791889,27.2232473 52.7452269,27.2587203 52.5106984,27.2547473 C52.0679834,27.2788689 51.6320663,27.1372608 51.2870715,26.85745 C50.9822978,26.5799095 50.8168815,26.1803419 50.8367088,25.7677203 C50.8259454,25.4549905 50.9078038,25.14595 51.0718038,24.8797608 C51.2377865,24.6348554 51.472315,24.4452878 51.7459316,24.3346122 C52.0855447,24.1998149 52.4461181,24.1257473 52.8112235,24.1160986 C53.2780145,24.0982203 53.7459385,24.1257473 54.2073478,24.1983959 C54.241904,23.9341932 54.2475689,23.6665851 54.2243427,23.4009635 C54.2098971,23.2207608 54.1526812,23.0468014 54.0572269,22.8932743 C53.9677209,22.7652878 53.8379938,22.6716392 53.6890059,22.6262338 C53.5012131,22.5683419 53.3052062,22.5413824 53.1086328,22.5467743 C52.8032926,22.5450716 52.4996518,22.5887743 52.2079074,22.6773149 C51.9246604,22.7652878 51.6669057,22.8532608 51.4431406,22.9440716 L51.1794377,22.3367743 Z" id="Fill-618"></path>
                <path d="M65.6167627,21.6926135 C65.6167627,22.3339649 65.3136884,23.0479649 64.7075399,23.8351811 C63.9467385,24.7773432 63.0927489,25.6397622 62.1583171,26.4091 L65.8405278,26.4091 L65.8405278,27.161127 L61.1952774,27.161127 L61.1952774,26.4091 C61.3281202,26.2842351 61.5096815,26.1253162 61.7391116,25.9181541 C61.9685416,25.7109919 62.2146832,25.4896405 62.4812187,25.2427486 C62.7474708,24.9958568 63.013723,24.7291 63.2881893,24.4424784 C63.5550079,24.1655054 63.8048318,23.8726405 64.0362446,23.5655865 C64.2452808,23.2835054 64.4276919,22.9824108 64.5800788,22.6659919 C64.7115054,22.3952622 64.7820339,22.0987081 64.7865658,21.7976135 C64.8069596,21.4377757 64.6894121,21.0836135 64.4582826,20.8072081 C64.1962791,20.5509514 63.8374052,20.4195595 63.4725831,20.4468027 C63.1516642,20.4394243 62.8315952,20.4814243 62.5237057,20.5716676 C62.2707661,20.6531135 62.0342549,20.7779784 61.8238024,20.9405865 L61.4671945,20.3730189 C61.7711185,20.155073 62.1087489,19.9893432 62.4670563,19.882073 C62.8423585,19.7733838 63.2318231,19.7200324 63.622704,19.7231541 C64.1710701,19.6831405 64.7112221,19.8769649 65.1097506,20.2566676 C65.4584276,20.651127 65.6405554,21.1661946 65.6167627,21.6926135" id="Fill-620"></path>
                <path d="M71.4741969,23.5003446 C71.4756131,23.1464662 71.4549361,22.7931554 71.4118826,22.4418311 L68.3103282,25.2796689 C68.4057824,25.6369527 68.5887599,25.964723 68.8428325,26.2331824 C69.0901071,26.4755338 69.4263212,26.6049392 69.7718826,26.59075 C70.3233644,26.6270743 70.8417064,26.3251284 71.0833161,25.8273716 C71.3439033,25.3108851 71.4741969,24.5304797 71.4741969,23.5003446 M68.092228,23.5003446 C68.092228,23.6734527 68.092228,23.8408851 68.1092228,23.9998041 C68.1262176,24.158723 68.1318826,24.3176419 68.1432124,24.4708851 L71.2589292,21.6472365 C71.1617755,21.3075473 70.9807807,20.998223 70.7320898,20.7476419 C70.4726356,20.5160743 70.1330225,20.3960338 69.7860449,20.412777 C69.2331468,20.3738986 68.7133886,20.6795338 68.4774439,21.1818311 C68.2208221,21.6966149 68.092228,22.4690743 68.092228,23.5003446 M67.2254922,23.5003446 C67.2192608,22.9634257 67.2713782,22.4279257 67.3812781,21.9026419 C67.4673851,21.4803716 67.6277029,21.0768311 67.8543005,20.71075 C68.0503074,20.3991554 68.3236408,20.1443176 68.6473921,19.9700743 C68.9980518,19.7915743 69.3872332,19.70275 69.78038,19.7115473 C70.1905216,19.6990608 70.5975475,19.7856149 70.9671848,19.9643986 C71.2923523,20.1312635 71.5656857,20.3846824 71.7574439,20.6965608 C71.9758273,21.061223 72.1248152,21.4633446 72.1964767,21.882777 C72.2927807,22.4165743 72.3381002,22.9580338 72.3324352,23.5003446 C72.3383834,24.0361284 72.286266,24.570777 72.1763661,25.0952095 C72.0905423,25.5171959 71.9302245,25.9207365 71.7036269,26.2871014 C71.5081865,26.5989797 71.2348532,26.8543851 70.9105354,27.027777 C70.5598756,27.2065608 70.1706943,27.2953851 69.7775475,27.2860203 C69.3676891,27.2959527 68.9623627,27.1980473 68.6020725,27.0022365 C68.2743558,26.8146554 68.000456,26.5456284 67.8061485,26.2218311 C67.5860656,25.8531959 67.4353782,25.4471014 67.3611675,25.0242635 C67.2674128,24.5219662 67.22181,24.0114392 67.2254922,23.5003446" id="Fill-622"></path>
                <polygon id="Fill-624" points="74.2414066 26.4063757 75.8785741 26.4063757 75.8785741 20.9066459 74.2244117 22.0755514 73.8165361 21.4798892 76.1136691 19.8393351 76.6974411 19.8393351 76.6974411 26.4063757 78.3062839 26.4063757 78.3062839 27.1581189 74.2558522 27.1581189"></polygon>
                <path d="M80.6824995,21.9622649 C80.6496428,22.389927 80.8159088,22.8090757 81.1328622,23.0974 C81.4775737,23.3604676 81.9038604,23.4932784 82.3366618,23.4717108 C82.6870383,23.4805081 83.0359986,23.4186432 83.3620159,23.290373 C83.6044753,23.2009811 83.8160608,23.0434811 83.9709969,22.8363189 C83.981477,22.7582784 83.988275,22.6793865 83.9911074,22.6007784 L83.9911074,22.3964541 C83.9905409,22.1518324 83.9571178,21.9086297 83.8916877,21.6725216 C83.8299399,21.4437919 83.7262715,21.2281162 83.585781,21.0371297 C83.444724,20.8455757 83.2614632,20.6894946 83.0504442,20.5802378 C82.8054356,20.4610486 82.5355012,20.4025892 82.2630176,20.4099676 C81.8364477,20.3841432 81.4175254,20.5302919 81.0988725,20.8157784 C80.8045789,21.1276568 80.6536083,21.5482243 80.6824995,21.9764541 L80.6824995,21.9622649 Z M79.8157637,22.0445622 C79.8134978,21.7358054 79.8661817,21.4293189 79.9715496,21.1392919 C80.0746515,20.8606162 80.2372352,20.6080486 80.4474045,20.3986162 C80.6728691,20.1775486 80.9419537,20.0061432 81.2376636,19.8963189 C81.5894563,19.7671973 81.9622093,19.7047649 82.3366618,19.7115757 C82.6944028,19.7050486 83.0493112,19.7697514 83.3818432,19.9019946 C83.6767033,20.0189135 83.9426722,20.1991162 84.1607724,20.4298324 C84.3800055,20.6673595 84.5462715,20.948873 84.6479572,21.2556432 C84.7643717,21.6038459 84.8207378,21.9693595 84.8150729,22.3365757 C84.8309347,23.0341162 84.7351972,23.7299541 84.5318259,24.3971297 C84.359895,24.9479541 84.0817465,25.4599 83.7132421,25.9040216 C83.3730625,26.3086973 82.9513078,26.6367514 82.4754528,26.8660486 C81.9865686,27.0979 81.4597292,27.2403595 80.9204269,27.2860486 L80.7618086,26.6248324 C81.1886618,26.5859541 81.6056014,26.4735757 81.993933,26.2928054 C82.3443095,26.1267919 82.6626791,25.9000486 82.934313,25.6227919 C83.2011316,25.3469541 83.4200815,25.0285486 83.5829485,24.6809135 C83.7511972,24.3210757 83.8664788,23.9388189 83.9256774,23.5457784 C83.8239917,23.6575892 83.7098432,23.7571973 83.585781,23.8437514 C83.4693665,23.9263324 83.3416221,23.9913189 83.2062301,24.0367243 C83.0580919,24.0895081 82.9040055,24.1246973 82.7473699,24.1417243 C82.5595772,24.164427 82.370085,24.174927 82.180876,24.1729405 C81.8718535,24.1746432 81.5648138,24.1258324 81.2716532,24.0282108 C80.9980366,23.9359811 80.7450971,23.7915351 80.5267136,23.6025351 C80.0746515,23.2154541 79.8200124,22.6456162 79.8327585,22.0502378 L79.8157637,22.0445622 Z" id="Fill-626"></path>
            </g>
        </g>
        <g id="Group-634" transform="translate(28.000000, 275.000000)" fill="#46D8F9">
            <polygon id="Fill-383" points="0.59441658 12.4555081 4.04436477 12.4555081 4.04436477 3.55321081 0.59441658 3.55321081 0.59441658 1.17226486 10.1794943 1.17226486 10.1794943 3.55321081 6.7125513 3.55321081 6.7125513 12.4555081 10.1794943 12.4555081 10.1794943 14.8364541 0.59441658 14.8364541"></polygon>
            <path d="M16.6205589,3.29491081 C16.3628041,3.29491081 16.1163793,3.29491081 15.8812843,3.32328919 C15.6461893,3.35166757 15.4592463,3.36585676 15.3147903,3.3913973 L15.3147903,7.8241 C15.3924,7.84169459 15.4708594,7.85474865 15.5498853,7.86382973 C15.6546867,7.86382973 15.765153,7.88653243 15.8812843,7.89220811 C15.9974155,7.89788378 16.1107143,7.89220811 16.2211807,7.89220811 L16.4647731,7.89220811 C16.8145831,7.89192432 17.1635434,7.85872162 17.5071219,7.79288378 C17.8365382,7.73499189 18.1512256,7.6123973 18.4333396,7.43247838 C18.7120546,7.25057297 18.9378024,6.99800541 19.0876401,6.70031622 C19.2646694,6.31578919 19.3482273,5.89465405 19.3312325,5.47153243 C19.3451116,5.10261351 19.2641029,4.73624865 19.0961375,4.40734324 C18.9488491,4.13576216 18.7381133,3.90391081 18.4814915,3.73193784 C18.2183551,3.55911351 17.9240615,3.43935676 17.6147558,3.38004595 C17.2873223,3.31619459 16.9542238,3.28384324 16.6205589,3.28355946 L16.6205589,3.29491081 Z M12.6551012,1.30842432 C13.2009181,1.20626216 13.8014017,1.1251 14.456552,1.06437027 C15.113685,1.00761351 15.765153,0.976397297 16.4166211,0.976397297 C17.0986798,0.977532432 17.7798888,1.03343784 18.4531668,1.14382973 C19.1040684,1.24400541 19.7291945,1.46961351 20.2942722,1.80788378 C20.8483033,2.14955946 21.3071634,2.62603243 21.6283655,3.19274865 C22.001685,3.90845135 22.1795641,4.71014054 22.143875,5.51693784 C22.1639855,6.25562703 22.0104656,6.98835676 21.6963447,7.65666757 C21.4150805,8.22764054 21.0083378,8.72738378 20.5067074,9.11815405 C20.0028111,9.51318108 19.424704,9.80264054 18.8072256,9.96950541 C18.1699199,10.1465865 17.5113706,10.2354108 16.8499889,10.2334243 L16.5384173,10.2334243 L16.090887,10.2334243 C15.9351012,10.2334243 15.7821478,10.2163973 15.6320269,10.2022081 C15.481906,10.1880189 15.3742722,10.1766676 15.3091254,10.1653162 L15.3091254,14.8704514 L12.6409389,14.8704514 L12.6551012,1.30842432 Z" id="Fill-385"></path>
            <polygon id="Fill-387" points="24.5600566 1.17220811 33.2132518 1.17220811 33.2132518 3.55315405 27.2310756 3.55315405 27.2310756 6.93018108 32.7827164 6.93018108 32.7827164 9.31396486 27.2310756 9.31396486 27.2310756 14.8363973 24.5600566 14.8363973"></polygon>
            <path d="M35.8813534,10.3667743 L38.025533,10.3667743 L38.025533,12.2993419 L38.1416642,12.3390716 C38.4589009,12.476423 38.7877506,12.5836932 39.1245313,12.6597473 C39.4961513,12.7460176 39.8762687,12.7888689 40.2575192,12.78745 C40.85602,12.8249095 41.4514052,12.6708149 41.957001,12.3475851 C42.3473154,12.08395 42.5758957,11.6384095 42.5631496,11.1670446 C42.5750459,10.7510176 42.3900857,10.3534365 42.0646349,10.0943419 C41.6924484,9.79580135 41.2794743,9.55231486 40.8381755,9.37069324 C40.3509907,9.16267973 39.8184864,8.95438243 39.2406625,8.74636892 C38.679267,8.54686892 38.1430805,8.28209865 37.6431496,7.95745 C37.1590805,7.6407473 36.7412912,7.23181486 36.4138577,6.75420676 C36.060932,6.19572027 35.8875848,5.54188243 35.9181755,4.88123378 C35.9116608,4.32643649 36.0280753,3.77703108 36.2580718,3.27217973 C36.4824035,2.78832838 36.8078542,2.35867973 37.2126142,2.01217973 C37.6468318,1.64723378 38.1467627,1.36884189 38.6854984,1.19204459 C39.3018439,0.992544595 39.9470805,0.896625676 40.5945831,0.908260811 C41.3783275,0.90731617 42.1606556,0.978639189 42.9313706,1.12109865 C43.5689596,1.22042297 44.187571,1.41538243 44.7668111,1.70001757 L44.7668111,5.67299054 L42.6226314,5.67299054 L42.6226314,3.49636892 C42.5832601,3.49523378 42.5438888,3.48870676 42.5065002,3.47650405 C42.2020097,3.39477432 41.892704,3.33205811 41.5802826,3.28920676 C41.2545485,3.24436892 40.9262653,3.22138243 40.5974155,3.22109865 C40.0802066,3.19357162 39.566963,3.32297703 39.1245313,3.59285541 C38.7843516,3.8082473 38.5815468,4.18596351 38.5894777,4.58893649 C38.584096,5.00155811 38.7741547,5.39204459 39.1018715,5.64177432 C39.4757575,5.9431527 39.8884484,6.19288243 40.3283309,6.38528784 C40.8155157,6.60663919 41.34802,6.82799054 41.9258439,7.04934189 C42.4852566,7.26161216 43.0208767,7.53262568 43.5233568,7.85812568 C44.0068594,8.17482838 44.4243655,8.58234189 44.7526487,9.05853108 C45.0987765,9.59913919 45.2718404,10.2328284 45.2483309,10.8747473 C45.2624933,11.5118419 45.1288007,12.1432608 44.8574501,12.7193419 C44.6033775,13.2420716 44.230058,13.696977 43.7669492,14.04745 C43.2721168,14.4180716 42.7101547,14.6896527 42.1127869,14.8477203 C40.9888629,15.1400176 39.8162204,15.1902473 38.6716193,14.9955716 C38.2764898,14.9271797 37.8864587,14.8323959 37.5043585,14.7115041 C37.1811737,14.6099095 36.8653534,14.4867473 36.5583136,14.3425851 C36.2863965,14.2120446 36.0654639,14.1013689 35.8955157,14.0105581 L35.8813534,10.3667743 Z" id="Fill-389"></path>
            <path d="M62.5574687,10.2505081 L64.6990991,10.2505081 L64.6990991,14.155373 C64.2175793,14.4845622 63.6799765,14.7220892 63.1126328,14.8563189 C62.4656967,15.0274405 61.7992166,15.1128595 61.129904,15.1115179 C60.3002736,15.1151297 59.4751751,14.9868595 58.6854826,14.7314541 C57.9218487,14.4820081 57.2250611,14.060873 56.64922,13.4998324 C56.0272097,12.8755081 55.5488055,12.1231973 55.2468642,11.2948324 C54.870429,10.2402919 54.6917002,9.12530541 54.7200249,8.00577838 C54.6851855,6.8539 54.8877071,5.70712973 55.3151268,4.63726486 C55.6598383,3.80606216 56.1818625,3.06027838 56.8443772,2.45212973 C57.4465603,1.9101027 58.1572269,1.50372432 58.929075,1.26023784 C59.6615516,1.0246973 60.4260352,0.903237838 61.1950508,0.899832432 C61.8615309,0.887345946 62.5268781,0.953183784 63.1777796,1.09564324 C63.6355067,1.19695405 64.080771,1.34735946 64.5064912,1.54402162 L64.5064912,5.60496757 L62.3623116,5.60496757 L62.3623116,3.37726486 C61.9496207,3.31312973 61.5332477,3.28077838 61.1157416,3.28077838 C60.6291233,3.27538649 60.1467537,3.37187297 59.6995067,3.56456216 C59.2584912,3.75923784 58.8698763,4.05721081 58.5665188,4.43294054 C58.2155758,4.86826486 57.9538556,5.36885946 57.796087,5.90577838 C57.5989472,6.58799459 57.5034929,7.29546757 57.5128401,8.00577838 C57.5063254,8.65479189 57.5912995,9.30153514 57.7649299,9.92699459 C57.9147675,10.4684541 58.1668573,10.9761432 58.507037,11.4225351 C58.8220076,11.8323189 59.2287503,12.162927 59.694125,12.3874 C60.1932062,12.622373 60.7398729,12.7398595 61.2913547,12.7307784 C61.7108435,12.7319135 62.1289161,12.6919 62.5404739,12.6115892 L62.5574687,10.2505081 Z" id="Fill-391"></path>
            <path d="M70.6670563,12.8953162 C71.1528249,12.9299378 71.6371772,12.8107486 72.052134,12.5547757 C72.3285831,12.3643568 72.5591461,12.1140595 72.7262618,11.8226135 L72.7262618,10.6505865 C72.5985174,10.6250459 72.4061927,10.5966676 72.1597679,10.5626135 C71.8853016,10.5299784 71.6088525,10.5138027 71.3326867,10.5143558 C71.0862618,10.5146541 70.8409699,10.5373568 70.599077,10.5824784 C70.371913,10.6233432 70.1518301,10.6959919 69.9444933,10.7981541 C69.762932,10.8864108 69.6045969,11.0169514 69.4828007,11.1784243 C69.3646867,11.3435865 69.3040718,11.5428027 69.3103033,11.7459919 C69.2901927,12.062127 69.4054743,12.3717351 69.6272566,12.5973432 C69.9274984,12.8266405 70.3028007,12.9339108 70.6783862,12.8981541 L70.6670563,12.8953162 Z M67.3502342,5.74112703 C67.9308905,5.48458649 68.5339233,5.28224865 69.1514017,5.13666757 C69.947609,4.95391081 70.7625105,4.86820811 71.5791116,4.88126216 C72.1623171,4.86849189 72.7441064,4.95078919 73.3012532,5.12531622 C73.7334881,5.2621 74.1277679,5.49934324 74.4509527,5.81774865 C74.7418473,6.12111351 74.9554155,6.49003243 75.0743793,6.89328919 C75.2114708,7.35358649 75.2771841,7.83204595 75.2698197,8.31220811 C75.2698197,8.97626216 75.2471599,9.54382973 75.2018404,10.0149108 C75.1576539,10.4306541 75.1349941,10.8483838 75.1338611,11.2663973 C75.1338611,11.5501811 75.1338611,11.8339649 75.1704,12.1830189 C75.1970252,12.3723027 75.2165693,12.5482486 75.2298819,12.7108568 L76.4959959,12.7108568 L76.4959959,14.8591 L73.2358231,14.8591 L72.9811841,13.5309919 L72.8845969,13.5309919 C72.6010667,13.9592216 72.2232152,14.3165054 71.7802169,14.5753162 C71.186248,14.8959919 70.5163689,15.0481 69.8428076,15.0151811 C69.0032636,15.0600189 68.1787316,14.7796405 67.5400097,14.2319378 C66.967001,13.7006946 66.6565623,12.9444108 66.6902687,12.1631541 C66.6769561,11.6730595 66.7797748,11.1866541 66.9905105,10.7442351 C67.1907661,10.3486405 67.4904415,10.0123568 67.8600788,9.76801892 C68.2815503,9.49842432 68.7477748,9.3063027 69.2363758,9.20045135 C69.8241133,9.07104595 70.4251634,9.00918108 71.02678,9.01599189 C71.2590425,9.01599189 71.5054674,9.01599189 71.7629389,9.05288378 C72.0206936,9.08977568 72.3294328,9.1068027 72.7120995,9.13234324 C72.7370252,9.00322162 72.7492048,8.87211351 72.7489216,8.74072162 L72.7489216,8.35477568 C72.7880097,7.95208649 72.6296746,7.55507297 72.3240511,7.29058649 C71.9504484,7.04965405 71.5094328,6.93614054 71.0661513,6.96707297 C70.463685,6.95912703 69.8634846,7.04511351 69.2876435,7.22247838 C68.8324656,7.36238378 68.3869181,7.53095135 67.9535503,7.72761351 L67.3502342,5.74112703 Z" id="Fill-393"></path>
            <path d="M81.9825465,14.8392635 L81.9825465,8.87980405 C81.9887779,8.56196622 81.9635689,8.24441216 81.9060698,7.93196622 C81.8686812,7.73275 81.7990024,7.54091216 81.6992995,7.36439865 C81.6318867,7.23612838 81.5214204,7.1359527 81.3877278,7.08061486 C81.2664981,7.03520946 81.137904,7.01222297 81.0084601,7.01250676 C80.7849782,7.01307432 80.5685775,7.08884459 80.3938142,7.22818243 C80.2108366,7.36326351 80.0774273,7.55481757 80.0142632,7.7730473 L80.0142632,14.8421014 L77.6774756,14.8421014 L77.6774756,5.07710135 L79.5267952,5.07710135 L79.8100421,6.14980405 L79.8666915,6.14980405 C80.0626984,5.77010135 80.3561423,5.44999324 80.7164325,5.22183108 C81.1146777,4.97664189 81.5749541,4.85120946 82.0420283,4.86142568 C82.470581,4.86199324 82.8917693,4.96926351 83.2684877,5.17358784 C83.6786294,5.40770946 83.969524,5.80642568 84.0672442,6.26899324 C84.247106,5.83565541 84.5620767,5.47241216 84.9651371,5.23318243 C85.3594169,4.99565541 85.8111959,4.87135811 86.2711889,4.87277703 C86.591258,4.86766892 86.9104774,4.91761486 87.2144014,5.02034459 C87.4984981,5.11597973 87.7511544,5.28766892 87.9451786,5.51696622 C88.1763081,5.81238514 88.3397416,6.15547973 88.4235827,6.52156081 C88.5456622,7.05649324 88.6008953,7.60476351 88.587866,8.15331757 L88.587866,14.83075 L86.2510784,14.83075 L86.2510784,8.58750676 C86.2510784,8.00291216 86.1547744,7.59142568 85.9678314,7.35872297 C85.8058142,7.13623649 85.5460767,7.00626351 85.2710439,7.00966892 C85.0574756,7.00484459 84.8467399,7.06188514 84.6651786,7.17426351 C84.4853168,7.30366892 84.3609713,7.49635811 84.3165016,7.7134527 L84.3165016,14.8392635 L81.9825465,14.8392635 Z" id="Fill-395"></path>
            <path d="M95.1848014,6.94998919 C94.7078135,6.9463 94.239323,7.07485405 93.8308808,7.32174595 C93.4184732,7.57261081 93.1148325,7.96962432 92.9811399,8.43417838 L92.9811399,12.4951243 C93.2170846,12.6642595 93.4867358,12.780327 93.771399,12.8356649 C94.1124283,12.9205162 94.4622383,12.9633676 94.8134646,12.9633676 C95.1593092,12.9662054 95.5023212,12.9034892 95.8249396,12.7789081 C96.1424594,12.6503541 96.4234404,12.4457459 96.6435233,12.1829622 C96.8947634,11.8790297 97.0808566,11.5262865 97.19019,11.1471514 C97.3303972,10.6596108 97.3963938,10.1533405 97.3856304,9.64593514 C97.3856304,8.79458378 97.1760276,8.12201622 96.762487,7.65944865 C96.369057,7.19858378 95.7901002,6.93835405 95.1848014,6.94998919 L95.1848014,6.94998919 Z M88.9788601,5.07701622 L92.2900173,5.07701622 L92.5732642,6.24904324 L92.6528566,6.24904324 C93.3267012,5.28417838 94.4180518,4.80288108 95.9269085,4.80458378 C96.488304,4.79919189 97.0454508,4.89539459 97.5725734,5.08836757 C98.0702383,5.27282703 98.5146528,5.57675946 98.8670121,5.97377297 C99.2457133,6.41846216 99.5272608,6.93778649 99.6940933,7.49769189 C100.095454,8.95946216 100.082708,10.5040973 99.6572712,11.958773 C99.4581485,12.5862189 99.1324145,13.1657054 98.6998964,13.6614757 C98.2829568,14.1317054 97.7634819,14.4989216 97.1816926,14.7341784 C96.5310743,14.9912865 95.8359862,15.1175703 95.1366494,15.1059351 C94.7384041,15.1067865 94.3410086,15.0775568 93.9470121,15.0182459 C93.6093817,14.9742595 93.2808152,14.8786243 92.9726425,14.7341784 L92.9726425,18.7355297 L90.4404145,18.7355297 L90.4404145,7.21958378 L88.9788601,7.21958378 L88.9788601,5.07701622 Z" id="Fill-397"></path>
            <path d="M2.97658031,26.4914623 C3.19468048,26.4920216 3.41193092,26.4633595 3.62238342,26.4063189 C3.82405527,26.3560892 4.01581347,26.2720892 4.18887737,26.1565892 C4.34522971,26.0467649 4.47495682,25.9031703 4.56842832,25.7365892 C4.66614853,25.5532649 4.71486701,25.348373 4.71005181,25.1406432 C4.72223143,24.8985757 4.66218307,24.6584946 4.53727116,24.4510486 C4.42567185,24.2785081 4.27158549,24.1377514 4.08974093,24.0424 C3.89458377,23.9422243 3.68384801,23.8749676 3.46659758,23.8437514 C3.23886701,23.8096973 3.00858722,23.7926703 2.77830743,23.7926703 L1.85492228,23.7926703 L1.85492228,26.4176703 C1.9237513,26.4338459 1.99399655,26.4443459 2.06452504,26.4488865 L2.34777202,26.4687514 C2.4525734,26.4687514 2.56020725,26.4687514 2.67350604,26.4854946 L2.97658031,26.4914623 Z M2.41008636,23.0605081 L2.83778929,23.0605081 C3.00490501,23.0605081 3.14369603,23.0434811 3.25699482,23.0292919 C3.4184456,22.9748054 3.57479793,22.9066973 3.72435233,22.8249676 C3.8676753,22.7483459 3.99995164,22.6529946 4.11806563,22.5411838 C4.22909845,22.431927 4.32002073,22.3042243 4.38715026,22.1637514 C4.45626252,22.0204405 4.4911019,21.8629405 4.48911917,21.7040216 C4.49478411,21.5065081 4.4488981,21.3106973 4.35599309,21.1364541 C4.27300173,20.9866162 4.15290501,20.8606162 4.00759931,20.770373 C3.8537962,20.6770081 3.68356477,20.6134405 3.50625216,20.5830757 C3.31930915,20.5484541 3.12981693,20.5302919 2.9397582,20.5291568 C2.71032815,20.5291568 2.50072539,20.5291568 2.30811744,20.5461838 C2.16281174,20.5521432 2.01807254,20.5671838 1.87474957,20.5915892 L1.87474957,23.0832108 L2.41008636,23.0605081 Z M5.3955095,21.5110486 C5.39409326,21.6918189 5.36661831,21.8717378 5.31336788,22.0445622 C5.25785147,22.2267514 5.17259413,22.3981568 5.06127807,22.5525351 C4.94486356,22.7142919 4.80125734,22.8547649 4.6364076,22.9668595 C4.44748187,23.0897378 4.23986183,23.1808324 4.02176166,23.2364541 L4.02176166,23.2790216 C4.22768221,23.3125081 4.42878756,23.3726703 4.61941278,23.4578054 C4.80862176,23.5392514 4.98055268,23.6558865 5.12642487,23.8011838 C5.27597927,23.9558459 5.39579275,24.1366162 5.48048359,24.3344135 C5.57367185,24.5710892 5.61899136,24.8239405 5.61360967,25.0782108 C5.62295682,25.4193189 5.54279793,25.7567378 5.38134715,26.0572649 C5.23065976,26.3257243 5.0204905,26.5561568 4.76670121,26.7298324 C4.50186528,26.9094676 4.20757168,27.0411432 3.89713299,27.1186162 C3.57026598,27.2014811 3.23433506,27.2431973 2.89727116,27.2431973 L2.4808981,27.2431973 C2.32029706,27.2431973 2.15318135,27.2378054 1.97955095,27.2264541 C1.80677029,27.2264541 1.63115717,27.2037514 1.45837651,27.1867243 C1.30485665,27.1708324 1.15246978,27.1441568 1.00234888,27.1072649 L1.00234888,19.9019946 C1.25727116,19.859427 1.56884283,19.825373 1.89740933,19.7969946 C2.22597582,19.7686162 2.60835924,19.754427 3.01056995,19.754427 C3.28758549,19.7549946 3.56431779,19.7776973 3.83765112,19.8225351 C4.10673575,19.8639676 4.36675648,19.9519405 4.60525043,20.0836162 C4.83496373,20.2147243 5.02927116,20.3997514 5.17174439,20.6228054 C5.33149568,20.8906973 5.4093886,21.1994541 5.3955095,21.5110486 L5.3955095,21.5110486 Z" id="Fill-602"></path>
            <path d="M8.88230812,26.5538014 C9.06698515,26.5557878 9.25052919,26.5231527 9.42330984,26.4573149 C9.72581762,26.3483419 9.98838756,26.1505446 10.1767468,25.8897473 C10.2520905,25.7881527 10.3146881,25.677477 10.3636898,25.5605581 L10.3636898,24.8283959 C10.0328573,24.7688014 9.69720967,24.7375851 9.36099551,24.7347473 C9.09332712,24.7302068 8.82622522,24.7634095 8.56790397,24.8340716 C8.36934784,24.8879905 8.18920276,24.994977 8.04672953,25.1433959 C7.91813541,25.2940851 7.85157237,25.4876257 7.85978653,25.685423 C7.85553782,25.9087608 7.93881244,26.1247203 8.09204905,26.2873284 C8.30590052,26.4839905 8.59311295,26.5807608 8.88230812,26.5538014 L8.88230812,26.5538014 Z M7.33577962,22.3367743 C7.65131675,22.1579905 7.99376235,22.0311392 8.3498038,21.9621797 C8.71320967,21.8864095 9.08313022,21.8472473 9.45446701,21.8458284 C9.75414231,21.8347608 10.0524014,21.8920851 10.3268677,22.0132608 C10.5378867,22.1108824 10.7211475,22.2601527 10.859372,22.44745 C10.9896656,22.6282203 11.0786052,22.8353824 11.1199592,23.0547473 C11.1652788,23.2800716 11.1879385,23.5090851 11.1879385,23.7386662 C11.1879385,24.0057068 11.1879385,24.2863689 11.1681112,24.5900176 C11.1482839,24.8936662 11.142619,25.1888014 11.1369541,25.4896122 C11.1355378,25.8216392 11.1562149,26.1536662 11.1992684,26.4828554 L11.9102183,26.4828554 L11.9102183,27.1610986 L10.5308055,27.1610986 L10.437334,26.3778554 L10.3863496,26.3778554 C10.3274342,26.4615716 10.2639869,26.5421662 10.1965741,26.6190716 C10.0988539,26.7266257 9.98867081,26.821977 9.8680076,26.9028554 C9.71278826,27.0058689 9.54538929,27.0890176 9.36949292,27.1500311 C9.14657755,27.2232473 8.91289879,27.2587203 8.67837029,27.2547473 C8.23537202,27.2791527 7.79917168,27.1375446 7.45474335,26.85745 C7.14968636,26.5799095 6.98455337,26.1803419 7.00438066,25.7677203 C6.99220104,25.4547068 7.07405941,25.1453824 7.23947565,24.8797608 C7.40545838,24.6348554 7.63998687,24.4452878 7.91360345,24.3346122 C8.25208359,24.2000986 8.61152401,24.1260311 8.97577962,24.1160986 C9.44370363,24.0982203 9.91247737,24.1257473 10.3750197,24.1983959 C10.4081596,23.9339095 10.4138245,23.6665851 10.3920145,23.4009635 C10.3778522,23.2201932 10.3195033,23.04595 10.2220663,22.8932743 C10.13341,22.7655716 10.0048159,22.6716392 9.85667772,22.6262338 C9.67313368,22.5697608 9.48194197,22.5428014 9.29018377,22.5467743 C8.98512677,22.5450716 8.68148601,22.5887743 8.38945838,22.6773149 C8.1062114,22.7652878 7.84845665,22.8532608 7.62469154,22.9440716 L7.33577962,22.3367743 Z" id="Fill-604"></path>
            <path d="M13.1621133,27.1582324 L13.1621133,26.4572865 L14.5783482,26.4572865 L14.5783482,22.6318811 L13.1621133,22.6318811 L13.1621133,21.9309351 L15.113685,21.9309351 L15.2808007,22.6094622 L15.3346176,22.6094622 C15.5736781,22.3906649 15.8402135,22.2045027 16.1277092,22.0560838 C16.4514604,21.8954622 16.8092014,21.8165703 17.170058,21.8259351 C17.3680477,21.8168541 17.5643378,21.8639622 17.736552,21.9621514 C17.8846902,22.0583541 18.0011047,22.1968405 18.0707834,22.3594486 C18.1571737,22.5609351 18.2115572,22.7743405 18.2322342,22.9922865 C18.2628249,23.2749351 18.2769872,23.5592865 18.2747212,23.8436378 L17.543944,23.8436378 C17.5595226,23.5130297 17.5153361,23.1824216 17.4136504,22.8674216 C17.3402895,22.6707595 17.147115,22.5447595 16.9377955,22.5580973 C16.7392394,22.5552595 16.5420995,22.5870432 16.3543067,22.6517459 C16.192856,22.7073676 16.0393361,22.7848405 15.8982791,22.8818946 C15.7821478,22.9633405 15.672248,23.0533 15.5697126,23.1512054 C15.4969181,23.2218676 15.4306383,23.298773 15.3714397,23.3810703 L15.3714397,26.4572865 L17.3768283,26.4572865 L17.3768283,27.1582324 L13.1621133,27.1582324 Z" id="Fill-606"></path>
            <path d="M23.3194632,22.7341 C23.1497983,22.6767757 22.9767344,22.6302351 22.8011212,22.5950459 C22.6215427,22.5558838 22.4382819,22.5357351 22.2541713,22.5354514 C21.5726791,22.5354514 21.0648173,22.6963568 20.7303026,23.0178838 C20.3963544,23.3396946 20.2292387,23.8505054 20.2292387,24.5503162 C20.2244235,24.8315459 20.2734252,25.1107892 20.3736946,25.3732892 C20.4665997,25.6059919 20.6099226,25.8151405 20.7929002,25.9862622 C20.9815427,26.1582351 21.2030418,26.2907622 21.4443682,26.3750459 C21.7177016,26.4692622 22.004914,26.5155189 22.2941092,26.5112622 C22.6195599,26.5115459 22.943028,26.4536541 23.2486515,26.3409919 C23.5333147,26.2413838 23.7973009,26.0904108 24.0275807,25.8954514 L24.3929693,26.5001946 C24.2776877,26.5955459 24.155325,26.6829514 24.0275807,26.7609919 C23.6791869,26.9766676 23.2956705,27.1293432 22.8945927,27.2122081 C22.6456187,27.2627216 22.3923959,27.2874108 22.1383233,27.2859919 C21.7312974,27.2936541 21.3262542,27.2272486 20.9427378,27.0901811 C20.6198363,26.9692892 20.3289416,26.7748973 20.0929969,26.5226135 C19.8579019,26.2751541 19.6800228,25.9786 19.5721057,25.6542351 C19.4477603,25.2890054 19.3874287,24.9047622 19.3936601,24.5191 C19.3860124,24.1206676 19.4483268,23.7239378 19.5777706,23.347073 C19.7933216,22.7000459 20.294952,22.1889514 20.9373561,21.9622081 C21.2888656,21.8356405 21.6602024,21.7732081 22.0335219,21.7777486 C22.7521195,21.7496541 23.4667516,21.900627 24.1125547,22.2176135 L24.1125547,22.2488297 L24.1125547,23.7046405 L23.361667,23.7046405 L23.3194632,22.7341 Z" id="Fill-608"></path>
            <path d="M28.3385147,22.49575 C28.1195648,22.4940473 27.9006149,22.5178851 27.6870466,22.5666959 C27.492456,22.6132365 27.3086287,22.6969527 27.1460449,22.8135878 C26.9862936,22.9339122 26.8545838,23.0880068 26.760829,23.2648041 C26.6529119,23.4779257 26.5871986,23.7103446 26.5682211,23.948723 L29.805734,23.948723 C29.7969534,23.5485878 29.639468,23.1657635 29.3638687,22.8760203 C29.0868532,22.6169257 28.7174991,22.4798581 28.3385147,22.49575 L28.3385147,22.49575 Z M30.5223489,26.4999392 C30.3855406,26.6199797 30.2362694,26.7255473 30.0776511,26.8149392 C29.8972228,26.9159662 29.7074473,26.9996824 29.5111572,27.0646689 C29.3055199,27.13675 29.0942176,27.1906689 28.8795164,27.2264257 C28.6608497,27.2664392 28.4387841,27.2863041 28.2167185,27.2860203 C27.8383005,27.2931149 27.4621485,27.2267095 27.1092228,27.0899257 C26.8007668,26.9673311 26.5263005,26.7726554 26.3076339,26.5223581 C26.0869845,26.2754662 25.919019,25.9860068 25.8147841,25.6710068 C25.6986528,25.3043581 25.6420035,24.9209662 25.6476684,24.5358716 C25.6417202,24.137723 25.7037513,23.7415608 25.8317789,23.3641284 C26.0493126,22.7125608 26.5571744,22.1997635 27.2055268,21.9764257 C27.556753,21.8495743 27.9283731,21.7871419 28.3016926,21.7919662 C28.5942867,21.7925338 28.8860311,21.8316959 29.1684283,21.9083176 C29.453658,21.9857905 29.7136788,22.1353446 29.9246978,22.3425068 C30.163475,22.5893986 30.3379551,22.8916284 30.4317098,23.2222365 C30.558038,23.6936014 30.5999585,24.1834122 30.5563385,24.6695338 L26.5229016,24.6695338 C26.479848,25.1936824 26.6648083,25.7107365 27.0299136,26.0884527 C27.4023834,26.4119662 27.8856028,26.5788311 28.3781693,26.5538581 C28.5690777,26.5547095 28.7594197,26.5320068 28.9446632,26.48575 C29.1233921,26.4420473 29.2992884,26.3881284 29.4715026,26.3239932 C29.6247392,26.2675203 29.7725941,26.1974257 29.9133679,26.1139932 C30.0184525,26.0526959 30.1178722,25.9826014 30.2107772,25.9039932 L30.5223489,26.4999392 Z" id="Fill-610"></path>
            <path d="M32.5050777,19.8394486 L34.2498791,19.8394486 L34.2498791,25.4018946 C34.2207047,25.7168946 34.2951986,26.0327459 34.4623143,26.3014892 C34.6203661,26.482827 34.8540449,26.5795973 35.0939551,26.5622865 C35.287696,26.5648405 35.480304,26.5290838 35.6604491,26.4572865 C35.8731675,26.3684622 36.0714404,26.2487054 36.2496028,26.1025568 L36.6263212,26.6701243 C36.5133057,26.7688811 36.390943,26.8565703 36.2609326,26.9312054 C35.9992124,27.0824622 35.715399,27.1917189 35.4196891,27.2547189 C35.2919447,27.2796919 35.1619344,27.2930297 35.0316408,27.2947324 C34.7973955,27.2989892 34.5642832,27.2655027 34.3405181,27.1951243 C34.1462107,27.1349622 33.9705976,27.0254216 33.8306736,26.8772865 C33.6842349,26.7098541 33.5785838,26.5109216 33.5219344,26.2955297 C33.4463074,26.0038 33.4111848,25.7029892 33.417133,25.4018946 L33.417133,20.5406784 L32.4994128,20.5406784 L32.5050777,19.8394486 Z" id="Fill-612"></path>
            <path d="M38.9884877,24.5445838 C38.9884877,24.7911919 39.0179454,25.0369486 39.0765775,25.2767459 C39.1301112,25.5117189 39.226132,25.734773 39.3598245,25.9351243 C39.4912511,26.1315027 39.6679972,26.2926919 39.875334,26.4064892 C40.1141112,26.5319216 40.3814964,26.5937865 40.6511475,26.5849892 C41.1267192,26.6184757 41.5906777,26.4260703 41.9030991,26.0656649 C42.2141043,25.6223946 42.3630922,25.0851919 42.3251371,24.5445838 C42.3257036,24.2959892 42.2965292,24.0482459 42.2376138,23.8067459 C42.1837969,23.5734757 42.0877762,23.3524081 41.9543668,23.154327 C41.8189748,22.9590838 41.6405292,22.7978946 41.4331924,22.6829622 C41.1949817,22.5575297 40.9287295,22.4959486 40.6596449,22.5044622 C40.1863392,22.4706919 39.7243634,22.6605432 39.4105257,23.017827 C39.100087,23.4633676 38.9508159,24.002273 38.9884877,24.5445838 M38.121752,24.5445838 C38.0818142,23.8175297 38.3163427,23.1023946 38.7791682,22.5410703 C39.2657865,22.0296919 39.9529437,21.7598135 40.6570957,21.8032324 C41.0457105,21.7944351 41.4317762,21.8679351 41.7900836,22.0191919 C42.0911751,22.1485973 42.3608263,22.3421378 42.5803427,22.5867595 C42.7924946,22.8413135 42.9502632,23.1367324 43.0445845,23.4548541 C43.1465534,23.805327 43.1969713,24.1685703 43.1949886,24.5332324 C43.1995206,24.9180432 43.1431544,25.3014351 43.0278729,25.6683676 C42.9261872,25.9836514 42.7593547,26.2739622 42.5375724,26.5197189 C42.316923,26.7615027 42.0435896,26.9488 41.7388159,27.0677054 C41.3943876,27.2027865 41.026733,27.2694757 40.6570957,27.2632324 C40.2684808,27.2717459 39.882132,27.1985297 39.5241078,27.0475568 C39.220467,26.9201378 38.9496829,26.7260297 38.7310162,26.4799892 C38.5180145,26.2257189 38.3596794,25.9300162 38.2662079,25.6116108 C38.166505,25.264827 38.1177865,24.905273 38.121752,24.5445838" id="Fill-614"></path>
            <path d="M44.7668394,23.7614257 L44.7668394,23.5145338 C44.7668394,23.4123716 44.7668394,23.3102095 44.7498446,23.1995338 C44.7328497,23.0888581 44.7498446,22.9866959 44.7243523,22.8816959 C44.7169879,22.7863446 44.7048083,22.6915608 44.6875302,22.5979122 L43.9879102,22.5979122 L43.9879102,21.9196689 L45.3871503,21.9196689 L45.4806218,22.7710203 L45.5344387,22.7710203 C45.6120484,22.6421824 45.7075026,22.5246959 45.8176857,22.4219662 C45.9372159,22.3007905 46.0711917,22.1946554 46.2170639,22.1069662 C46.3776649,22.0107635 46.5501623,21.935277 46.7297409,21.882777 C46.9226321,21.8251689 47.123171,21.7965068 47.3245596,21.7976419 C47.6112055,21.7942365 47.8970017,21.8294257 48.1743005,21.9026419 C48.411095,21.9656419 48.6249465,22.0944797 48.7917789,22.2743986 C48.9702245,22.4821284 49.0971192,22.7290203 49.1628325,22.9952095 C49.254038,23.3743446 49.2959585,23.7634122 49.2874611,24.1530473 L49.2874611,27.1526419 L48.4490501,27.1526419 L48.4490501,24.3148041 C48.4770915,23.8624527 48.3790881,23.4118041 48.1658031,23.0122365 C47.9788601,22.7284527 47.6389637,22.5723716 47.146114,22.5723716 C46.9648359,22.5723716 46.7852573,22.6098311 46.6192746,22.6830473 C46.4518756,22.7537095 46.2960898,22.8493446 46.157582,22.9668311 C46.017658,23.0865878 45.8947288,23.2250743 45.7921934,23.3783176 C45.6916408,23.5309932 45.6151641,23.6987095 45.5655959,23.8749392 L45.5655959,27.1498041 L44.7668394,27.1498041 L44.7668394,23.7614257 Z" id="Fill-616"></path>
            <path d="M52.7259661,26.5538014 C52.9117762,26.5560716 53.0964532,26.5234365 53.2698003,26.4573149 C53.4267192,26.4005581 53.5734411,26.3202473 53.7060007,26.2189365 C53.8255309,26.1275581 53.9314653,26.0194365 54.0204048,25.8982608 C54.0957485,25.7963824 54.1586294,25.6857068 54.2073478,25.5690716 L54.2073478,24.8369095 C53.8765154,24.7773149 53.5411509,24.7460986 53.2046535,24.7432608 C52.9369851,24.7387203 52.6701665,24.7722068 52.4118453,24.8425851 C52.2130059,24.8965041 52.033144,25.0032068 51.8906708,25.1521932 C51.7620767,25.3025986 51.6952304,25.4958554 51.7037278,25.6939365 C51.7000456,25.9178419 51.7844532,26.1338014 51.9388228,26.2955581 C52.1529575,26.4893824 52.4387537,26.5833149 52.7259661,26.5538014 L52.7259661,26.5538014 Z M51.1794377,22.3367743 C51.4949748,22.1579905 51.8374204,22.0311392 52.1934618,21.9621797 C52.5577174,21.8864095 52.9290542,21.8472473 53.3009575,21.8458284 C53.5997831,21.8353284 53.8971924,21.8923689 54.170809,22.0132608 C54.381828,22.1108824 54.5648055,22.2601527 54.7030301,22.44745 C54.8333237,22.6282203 54.9225465,22.8353824 54.9636173,23.0547473 C55.0089368,23.2800716 55.0318798,23.5090851 55.0318798,23.7386662 C55.0318798,24.0057068 55.0318798,24.2863689 55.0117693,24.5900176 C54.991942,24.8936662 54.986277,25.1888014 54.9806121,25.4896122 C54.9791959,25.8216392 54.9998729,26.1536662 55.0432097,26.4828554 L55.7425465,26.4828554 L55.7425465,27.1610986 L54.3631337,27.1610986 L54.2696622,26.3778554 L54.218961,26.3778554 C54.1597623,26.4615716 54.0965983,26.5421662 54.0291855,26.6190716 C53.9320318,26.7271932 53.8215655,26.8225446 53.7003358,26.9028554 C53.5453997,27.0058689 53.3780007,27.0890176 53.2021043,27.1500311 C52.9791889,27.2232473 52.7452269,27.2587203 52.5106984,27.2547473 C52.0679834,27.2788689 51.6320663,27.1372608 51.2870715,26.85745 C50.9822978,26.5799095 50.8168815,26.1803419 50.8367088,25.7677203 C50.8259454,25.4549905 50.9078038,25.14595 51.0718038,24.8797608 C51.2377865,24.6348554 51.472315,24.4452878 51.7459316,24.3346122 C52.0855447,24.1998149 52.4461181,24.1257473 52.8112235,24.1160986 C53.2780145,24.0982203 53.7459385,24.1257473 54.2073478,24.1983959 C54.241904,23.9341932 54.2475689,23.6665851 54.2243427,23.4009635 C54.2098971,23.2207608 54.1526812,23.0468014 54.0572269,22.8932743 C53.9677209,22.7652878 53.8379938,22.6716392 53.6890059,22.6262338 C53.5012131,22.5683419 53.3052062,22.5413824 53.1086328,22.5467743 C52.8032926,22.5450716 52.4996518,22.5887743 52.2079074,22.6773149 C51.9246604,22.7652878 51.6669057,22.8532608 51.4431406,22.9440716 L51.1794377,22.3367743 Z" id="Fill-618"></path>
            <path d="M65.6167627,21.6926135 C65.6167627,22.3339649 65.3136884,23.0479649 64.7075399,23.8351811 C63.9467385,24.7773432 63.0927489,25.6397622 62.1583171,26.4091 L65.8405278,26.4091 L65.8405278,27.161127 L61.1952774,27.161127 L61.1952774,26.4091 C61.3281202,26.2842351 61.5096815,26.1253162 61.7391116,25.9181541 C61.9685416,25.7109919 62.2146832,25.4896405 62.4812187,25.2427486 C62.7474708,24.9958568 63.013723,24.7291 63.2881893,24.4424784 C63.5550079,24.1655054 63.8048318,23.8726405 64.0362446,23.5655865 C64.2452808,23.2835054 64.4276919,22.9824108 64.5800788,22.6659919 C64.7115054,22.3952622 64.7820339,22.0987081 64.7865658,21.7976135 C64.8069596,21.4377757 64.6894121,21.0836135 64.4582826,20.8072081 C64.1962791,20.5509514 63.8374052,20.4195595 63.4725831,20.4468027 C63.1516642,20.4394243 62.8315952,20.4814243 62.5237057,20.5716676 C62.2707661,20.6531135 62.0342549,20.7779784 61.8238024,20.9405865 L61.4671945,20.3730189 C61.7711185,20.155073 62.1087489,19.9893432 62.4670563,19.882073 C62.8423585,19.7733838 63.2318231,19.7200324 63.622704,19.7231541 C64.1710701,19.6831405 64.7112221,19.8769649 65.1097506,20.2566676 C65.4584276,20.651127 65.6405554,21.1661946 65.6167627,21.6926135" id="Fill-620"></path>
            <path d="M71.4741969,23.5003446 C71.4756131,23.1464662 71.4549361,22.7931554 71.4118826,22.4418311 L68.3103282,25.2796689 C68.4057824,25.6369527 68.5887599,25.964723 68.8428325,26.2331824 C69.0901071,26.4755338 69.4263212,26.6049392 69.7718826,26.59075 C70.3233644,26.6270743 70.8417064,26.3251284 71.0833161,25.8273716 C71.3439033,25.3108851 71.4741969,24.5304797 71.4741969,23.5003446 M68.092228,23.5003446 C68.092228,23.6734527 68.092228,23.8408851 68.1092228,23.9998041 C68.1262176,24.158723 68.1318826,24.3176419 68.1432124,24.4708851 L71.2589292,21.6472365 C71.1617755,21.3075473 70.9807807,20.998223 70.7320898,20.7476419 C70.4726356,20.5160743 70.1330225,20.3960338 69.7860449,20.412777 C69.2331468,20.3738986 68.7133886,20.6795338 68.4774439,21.1818311 C68.2208221,21.6966149 68.092228,22.4690743 68.092228,23.5003446 M67.2254922,23.5003446 C67.2192608,22.9634257 67.2713782,22.4279257 67.3812781,21.9026419 C67.4673851,21.4803716 67.6277029,21.0768311 67.8543005,20.71075 C68.0503074,20.3991554 68.3236408,20.1443176 68.6473921,19.9700743 C68.9980518,19.7915743 69.3872332,19.70275 69.78038,19.7115473 C70.1905216,19.6990608 70.5975475,19.7856149 70.9671848,19.9643986 C71.2923523,20.1312635 71.5656857,20.3846824 71.7574439,20.6965608 C71.9758273,21.061223 72.1248152,21.4633446 72.1964767,21.882777 C72.2927807,22.4165743 72.3381002,22.9580338 72.3324352,23.5003446 C72.3383834,24.0361284 72.286266,24.570777 72.1763661,25.0952095 C72.0905423,25.5171959 71.9302245,25.9207365 71.7036269,26.2871014 C71.5081865,26.5989797 71.2348532,26.8543851 70.9105354,27.027777 C70.5598756,27.2065608 70.1706943,27.2953851 69.7775475,27.2860203 C69.3676891,27.2959527 68.9623627,27.1980473 68.6020725,27.0022365 C68.2743558,26.8146554 68.000456,26.5456284 67.8061485,26.2218311 C67.5860656,25.8531959 67.4353782,25.4471014 67.3611675,25.0242635 C67.2674128,24.5219662 67.22181,24.0114392 67.2254922,23.5003446" id="Fill-622"></path>
            <polygon id="Fill-624" points="74.2414066 26.4063757 75.8785741 26.4063757 75.8785741 20.9066459 74.2244117 22.0755514 73.8165361 21.4798892 76.1136691 19.8393351 76.6974411 19.8393351 76.6974411 26.4063757 78.3062839 26.4063757 78.3062839 27.1581189 74.2558522 27.1581189"></polygon>
            <path d="M80.6824995,21.9622649 C80.6496428,22.389927 80.8159088,22.8090757 81.1328622,23.0974 C81.4775737,23.3604676 81.9038604,23.4932784 82.3366618,23.4717108 C82.6870383,23.4805081 83.0359986,23.4186432 83.3620159,23.290373 C83.6044753,23.2009811 83.8160608,23.0434811 83.9709969,22.8363189 C83.981477,22.7582784 83.988275,22.6793865 83.9911074,22.6007784 L83.9911074,22.3964541 C83.9905409,22.1518324 83.9571178,21.9086297 83.8916877,21.6725216 C83.8299399,21.4437919 83.7262715,21.2281162 83.585781,21.0371297 C83.444724,20.8455757 83.2614632,20.6894946 83.0504442,20.5802378 C82.8054356,20.4610486 82.5355012,20.4025892 82.2630176,20.4099676 C81.8364477,20.3841432 81.4175254,20.5302919 81.0988725,20.8157784 C80.8045789,21.1276568 80.6536083,21.5482243 80.6824995,21.9764541 L80.6824995,21.9622649 Z M79.8157637,22.0445622 C79.8134978,21.7358054 79.8661817,21.4293189 79.9715496,21.1392919 C80.0746515,20.8606162 80.2372352,20.6080486 80.4474045,20.3986162 C80.6728691,20.1775486 80.9419537,20.0061432 81.2376636,19.8963189 C81.5894563,19.7671973 81.9622093,19.7047649 82.3366618,19.7115757 C82.6944028,19.7050486 83.0493112,19.7697514 83.3818432,19.9019946 C83.6767033,20.0189135 83.9426722,20.1991162 84.1607724,20.4298324 C84.3800055,20.6673595 84.5462715,20.948873 84.6479572,21.2556432 C84.7643717,21.6038459 84.8207378,21.9693595 84.8150729,22.3365757 C84.8309347,23.0341162 84.7351972,23.7299541 84.5318259,24.3971297 C84.359895,24.9479541 84.0817465,25.4599 83.7132421,25.9040216 C83.3730625,26.3086973 82.9513078,26.6367514 82.4754528,26.8660486 C81.9865686,27.0979 81.4597292,27.2403595 80.9204269,27.2860486 L80.7618086,26.6248324 C81.1886618,26.5859541 81.6056014,26.4735757 81.993933,26.2928054 C82.3443095,26.1267919 82.6626791,25.9000486 82.934313,25.6227919 C83.2011316,25.3469541 83.4200815,25.0285486 83.5829485,24.6809135 C83.7511972,24.3210757 83.8664788,23.9388189 83.9256774,23.5457784 C83.8239917,23.6575892 83.7098432,23.7571973 83.585781,23.8437514 C83.4693665,23.9263324 83.3416221,23.9913189 83.2062301,24.0367243 C83.0580919,24.0895081 82.9040055,24.1246973 82.7473699,24.1417243 C82.5595772,24.164427 82.370085,24.174927 82.180876,24.1729405 C81.8718535,24.1746432 81.5648138,24.1258324 81.2716532,24.0282108 C80.9980366,23.9359811 80.7450971,23.7915351 80.5267136,23.6025351 C80.0746515,23.2154541 79.8200124,22.6456162 79.8327585,22.0502378 L79.8157637,22.0445622 Z" id="Fill-626"></path>
        </g>
    </g>
</svg>